<?xml version="1.0" encoding="UTF-8"?>
<svg id="Livello_1" xmlns="http://www.w3.org/2000/svg" version="1.1" viewBox="0 0 283.5 283.5">
  <!-- Generator: Adobe Illustrator 29.3.0, SVG Export Plug-In . SVG Version: 2.1.0 Build 146)  -->
  <defs>
    <style>
      .st0 {
        fill: #1d1d1b;
        fill-rule: evenodd;
      }
    </style>
  </defs>
  <path class="st0" d="M200,145.3c-1.6,1.8-3.6,2.4-5.1,1.8-2.7-1-2.4-4-1.4-7.9.9-3.5,4.1-13.2,7.7-18.8,0,0,.5-.7,0-1-.7-.4-1.7-.4-2.4-.4-8.4.3-10.2,26.5-19.2,28.2s-4.1-5.5-2.5-9.8c2.4-6.6,5.5-14,6.7-17.3.5-1.4-1.8-2.3-3.1-2.4-1.1,0-2.6.4-3.1,1.4-2.6,5.4-4.9,11.7-7.6,19.2s-12,12.1-13.5,6.5c-.5-2,.8-5.5,1.9-8.8,2.1-6.3,5.9-14.2,6.6-16,.3-.7-.4-1.1-1.3-1.1s-2.3.2-3.3.8c-2.4,1.2-3.9,4.4-5.3,7.2-3.2,6.5-6.6,15.4-4.9,20.2,1.2,3.4,4.5,3.6,7,3.3s8.1-2.2,12.2-7c-1.1,9.4,13.1,10.1,17.5-.3.5,3.9,2.4,6.8,5.6,7.3,5.4.8,8.3-2.7,11.7-9.3l-1-.6c-.9,1.6-1.9,3-3.2,4.5Z"/>
  <path class="st0" d="M236.1,115.8c4.4-3.2,9.5-3.6,9.5-3.6v-1.2c-16.3.3-25.7,16.6-32.5,33.1.4-6.9,1.5-24.3-4.2-25.5-.8-.2-1.6.6-1.5,2,.4,4.9.5,14.5,0,19.7-.3,3-1.7,9.8,3.5,10.6,11,1.6,13.7-26.9,25.1-35.1Z"/>
  <path class="st0" d="M161.8,112.9c-.2,1.1.2,1.3.7,1.3,1.3,0,4.7-1.4,5.8-2.2,1.2-1,4.5-7.4,3.8-8.4s-1.3-.4-2.5,0c-2.2.9-4.7,3-6.4,5.5s-1.4,3-1.5,3.7Z"/>
  <path class="st0" d="M281.9,150.4c-6.4,2.8-14.9,5.1-20.9,1.5-3.4-2-4.9-6-3.1-14.3,1.5-6.8,7-17,3.9-18.3-5-2-16.6,1.5-24.5,9.7-4.8,4.9-8.3,11.6-8.3,19.8s6.4,2.8,12.4,0c3.8-1.7,6.4-4.4,8.4-6.1,1.5,7.9,4.8,11.4,10.8,13.2,7.2,2.2,18.1-2.7,21.7-4.7l-.5-1ZM248,138.8c-5.3,5.2-13,6-13.1,5.3-.8-5.1,3.9-11.4,6.4-13.9,5.9-5.9,13.1-7.3,14.4-6.3,1.8,1.3-2.7,9.9-7.7,14.8Z"/>
  <path class="st0" d="M82.7,151.4l-.5-1c-6.4,2.8-14.9,5.1-20.9,1.5-3.4-2-4.9-6-3.1-14.3,1.5-6.8,7-17,3.9-18.3-7.5-3-30.7,6.5-32.3,26.5-1.7.3-6.5.9-17.2.7s-4.9-1.6-3.5-6.2c2.8-9.1,9.5-30.8,26.9-68.3,3.2-7,6.4-13.6,9.6-19.9,0,0,.6-1.1.2-1.7-.4-.5-1.6-1.3-2.5-1.5,0,0-1.2-.7-2.2,1.5-3.2,6.4-7.3,14.1-10.6,21.2C12.7,109.6,3.9,132,1.5,143c-1.2,5.7.2,8.8,7.9,8.6,16.4-.4,23-.3,31.4-2.6s7.3-4.4,9.3-6.1c1.5,7.9,4.8,11.4,10.8,13.2,7.2,2.2,18.2-2.8,21.7-4.7ZM48.3,138.8c-5.3,5.2-13,6-13.1,5.3-.8-5.1,3.9-11.4,6.4-13.9,5.9-5.9,13.1-7.3,14.4-6.3,1.8,1.3-2.7,9.9-7.7,14.8Z"/>
  <path class="st0" d="M146.9,119.6c.3-1.1-.5-1.7-1.8-2l-4-.7c-.7,0-1.4.3-1.8.9-8.2,13.3-15,21.1-24.2,26.2-7.4,4.1-17,3.6-22.1-3.6-10.3-14.4,5.4-54,26-72.3,17.1-15.2,32.2-18.7,39.9-15s3.4-1,2.9-1.9c-3.7-5.7-20.8-4.8-35.5,3.6-33.9,19.4-52.1,66.1-39.1,86.5,4.3,6.7,11.2,8.7,17.9,8.4,7.4-.3,18.9-3.4,31-18.3-2.4,8.4-5,15.5-7.2,21.8-17.4,1.9-36.7,10-52.8,27.9-18.7,20.9-19.1,49.2-5.2,53.9,18.8,6.4,38-17,56.1-57.5,2.1-4.8,5.8-13.2,8.8-21.9,9-.3,15.4,1.9,20.2,6.4l1.2-.8c-5.8-5.4-12.5-7.9-20.7-8,3.7-10.9,7.8-24.6,10.3-33.5ZM120.6,173.9c-12.7,28.3-28.5,63.8-45.9,59.3-12.9-3.3-8.6-31,6.6-49.6,14.7-18.1,31.6-25.3,46.9-27.6-1.5,4-5.3,12.9-7.5,18Z"/>
</svg>