<?xml version="1.0" encoding="UTF-8"?>
<svg id="Livello_1" xmlns="http://www.w3.org/2000/svg" version="1.1" viewBox="0 0 841.9 595.3">
  <!-- Generator: Adobe Illustrator 29.3.1, SVG Export Plug-In . SVG Version: 2.1.0 Build 151)  -->
  <path d="M474.4,234.2c1.9,9.3,1.4,18.9-1.6,27.9l-11.2-3.7c.5-1.6,1-3.3,1.3-5l7,1.4c1.3-6.5,1.2-13.1-.1-19.6l4.6-.9h0Z"/>
  <path d="M473.5,230.6l-4.5,1.3c-2.1-7.4-5.8-14.2-11-20l-5.3,4.8c-1.2-1.3-2.4-2.5-3.7-3.6l4.7-5.4c-2.5-2.2-5.3-4.2-8.2-5.8l2.3-4.1c12.6,7.1,21.9,18.9,25.8,32.9"/>
  <path d="M467.4,263.3l4.4,1.7c-3,7.6-7.6,14.5-13.6,20.1l-8.1-8.6c.9-.9,1.8-1.7,2.6-2.7l5.3,4.8c4-4.5,7.2-9.7,9.4-15.3"/>
  <path d="M457.9,215.5c8.1,10.1,11.7,23,10.1,35.8l-7.1-.9c-.3,2.5-.9,4.9-1.6,7.3l-4.5-1.5c1.2-3.7,1.8-7.6,1.7-11.6l7.1-.7c-.3-9.3-3.6-18.3-9.4-25.5l3.7-2.9h0Z"/>
  <path d="M460.8,260.7l4.4,1.7c-1.8,4.6-4.3,9-7.4,12.8l-3.6-3c2.8-3.5,5.1-7.4,6.7-11.5"/>
  <path d="M456.6,226.4c2.4,4.6,4,9.7,4.5,14.9l-4.7.5c-.5-4.6-1.8-9-3.9-13.1l4.2-2.2h-.1Z"/>
  <path d="M451.9,257.2l6.6,2.6c-.7,1.8-1.5,3.6-2.5,5.3l-10.3-5.8c4.8-8.4,4.9-18.7.4-27.3l4.2-2.2c4.5,8.5,5.1,18.5,1.6,27.5"/>
  <path d="M453.3,283.2l3,3.6c-9.6,8.2-21.7,12.8-34.3,13v-4.7c3,0,6.2-.4,9.2-1.1l-1.5-7c1.7-.4,3.4-.8,5-1.4l2.3,6.7c5.9-2,11.4-5.2,16.2-9.2"/>
  <path d="M455.1,223.8l-10,6.3c-6-9.7-17.2-14.8-28.5-13.1l-1.8-11.7c1.7-.3,3.4-.4,5.2-.5l.2,7.1c10.3-.3,20.2,4.3,26.7,12.4l5.6-4.5c1,1.2,1.9,2.5,2.8,3.9"/>
  <path d="M444.5,261.2l10.3,5.8c-2.8,4.3-6.3,8-10.4,11l-2.7-3.8c2.3-1.6,4.4-3.5,6.2-5.7l-5.4-4.6c.7-.8,1.4-1.7,2-2.6"/>
  <path d="M448.7,277.7l3,3.6c-3.8,3.2-8,5.8-12.5,7.7l-2.7-6.6c-5.1,2.1-10.6,3.2-16.1,3.1v-4.7c6.5,0,12.9-1.6,18.5-4.8l2.8,6.6c2.5-1.4,4.9-3,7-4.9"/>
  <path d="M450.9,218.2l-3.5,3.1c-2.6-2.9-5.6-5.3-9-7.2l3.5-6.2c-8.3-4.7-18-6.4-27.5-5l-.7-4.6c12.8-2,25.8,1.3,36,9.2l-4.3,5.7c2,1.5,3.8,3.2,5.5,5.1"/>
  <path d="M444.9,196.2l-2.1,4.2c-9.2-4.5-19.5-6.1-29.5-4.5l-.7-4.6c11-1.7,22.3,0,32.3,4.9"/>
  <path d="M440.9,265.6l3.3,3.4c-6.8,6.6-16,10-25.5,9.4l-.5,7.1c-1.8-.1-3.6-.4-5.3-.7l2.4-11.6c9.2,1.9,18.9-.9,25.6-7.5"/>
  <path d="M437.6,208.5l-1.9,4.3c-4.3-1.9-8.9-3-13.6-3.2v-4.7c5.5.2,10.7,1.4,15.6,3.6"/>
  <path d="M427.5,287.5l.7,4.6c-12.8,2-25.8-1.3-36-9.2l4.3-5.7c-3.4-2.6-6.4-5.7-8.8-9.2l3.9-2.7c3,4.4,7,8.1,11.7,10.8l-3.5,6.2c8.4,4.8,18.2,6.6,27.8,5.1"/>
  <path d="M419.3,295.1v4.7c-7.6-.2-14.9-2-21.6-5.2l2-4.2c6.1,2.9,12.8,4.5,19.6,4.7"/>
  <path d="M434.1,231c1.7,1,3.6,1.6,5.5,1.9-3.3,2.6-7.4,4-11.5,4.1-.4,2.1-.4,4.3,0,6.4-2-2.4-2.7-5.8-1.7-8.8,2.6-1.1,5.2-2.3,7.7-3.6"/>
  <path d="M434.1,259h0c0,.3,0,.6-.1.9-.6,2.8-3.5,4.6-6.3,4-2.9-.7-5.4-2.7-6.7-5.4-1.3,2.7-3.8,4.6-6.7,5.4-.3,0-.6.1-.9.1-2.9.2-5.4-2-5.6-4.9,4.4,2.8,10.3,1.5,13.1-2.9h0c2.8,4.4,8.7,5.7,13.1,2.9"/>
  <path d="M425.4,246.3c-2.1,1.6-3.7,3.9-4.5,6.5-.8-2.6-2.3-4.8-4.5-6.5,3,.3,6,.3,9,0"/>
  <path d="M415.5,234.6c1,3,.4,6.3-1.7,8.8.4-2.1.4-4.3,0-6.4-4.2-.1-8.2-1.5-11.5-4.1,2-.3,3.8-.9,5.5-1.9,2.5,1.3,5.1,2.5,7.7,3.6"/>
  <path d="M414,212.7l1,4.6c-6.9,1.5-13,5.4-17.1,11.1l-3.8-2.8c4.8-6.6,11.9-11.3,20-13"/>
  <path d="M413.9,272.8l-1.2,4.5c-8.5-2.1-15.7-7.5-20.2-15l-6.1,3.7c-3.5-5.7-5.4-12.2-5.7-18.9l4.7-.2c.2,4.5,1.3,8.9,3.1,13l6.5-3c3.6,7.9,10.5,13.7,18.9,15.8"/>
  <path d="M412.6,205.8l1,4.6c-3.7.8-7.3,2.2-10.5,4.1l-2.8-6.6c-11.1,6.1-18.8,16.8-21.3,29.2l-7-1.4c-.8,3.8-1,7.7-.9,11.6l-4.7.2c-.3-6.5.6-13,2.6-19.2l6.8,2.2c4.3-13.1,14.1-23.8,26.8-29.1l2.8,6.6c2.3-1,4.7-1.7,7.2-2.2"/>
  <path d="M412.1,279.7l-1.2,4.5c-2.6-.7-5.1-1.6-7.5-2.7l2-4.2c2.1,1,4.4,1.8,6.6,2.4"/>
  <path d="M409.6,191.8l2.5,11.6c-1.7.4-3.4.8-5,1.4l-2.3-6.7c-4.7,1.6-9.1,3.9-13.1,6.9l-2.8-3.8c6.2-4.5,13.3-7.7,20.8-9.3"/>
  <path d="M397.5,212.4l2.7,3.8c-3.9,2.8-7.2,6.3-9.7,10.4l6.1,3.7c-4.5,7.3-5.4,16.3-2.5,24.4l-4.4,1.6c-2.8-8-2.5-16.7.9-24.5l-6.5-2.9c2.9-6.6,7.5-12.3,13.4-16.5"/>
  <path d="M397,289l-2.2,4.1c-5.4-3-10.2-6.8-14.4-11.4l8.8-7.9c1.2,1.3,2.4,2.5,3.7,3.6l-4.7,5.4c2.7,2.4,5.7,4.4,8.8,6.1"/>
  <path d="M385.5,203.7l3,3.6c-6.3,5.4-11.1,12.2-14.1,19.9l-4.4-1.7c3.3-8.4,8.6-15.9,15.4-21.8"/>
  <path d="M387.6,272l-3.7,2.9c-8.1-10.1-11.7-23-10.1-35.8l7.1.9c.4-3.1,1.1-6.1,2.2-9.1l4.4,1.7c-1.4,3.8-2.2,7.8-2.3,11.9h-7.1c-.2,9.9,3.1,19.6,9.4,27.4"/>
  <path d="M382.1,276.5l-3.7,2.9c-6.7-8.3-10.8-18.4-11.8-29l4.7-.4c.9,9.7,4.7,18.9,10.8,26.5"/>
  <path d="M152.5,328.9h-10.1c-.7,0-1.3-.6-1.3-1.3v-5.4c0-.7.5-1.3,1.3-1.3h29c.7,0,1.3.6,1.3,1.3v5.4c0,.7-.5,1.3-1.3,1.3h-10.1v37.2c0,.7-.6,1.3-1.3,1.3h-6.2c-.7,0-1.3-.6-1.3-1.3v-37.2h0Z"/>
  <path d="M178.5,322.2c0-.7.5-1.3,1.3-1.3h27c.7,0,1.3.6,1.3,1.3v5.4c0,.7-.5,1.3-1.3,1.3h-19.6v10.9h16.4c.7,0,1.3.6,1.3,1.3v5.5c0,.7-.6,1.3-1.3,1.3h-16.4v11.6h19.6c.7,0,1.3.6,1.3,1.3v5.4c0,.7-.5,1.3-1.3,1.3h-27c-.7,0-1.3-.6-1.3-1.3v-43.9h0Z"/>
  <path d="M216.5,321.4c0-.7.6-1.2,1.3-1.2h1.7l27.6,29.3h0v-27.4c0-.7.5-1.3,1.3-1.3h6.1c.7,0,1.3.6,1.3,1.3v44.6c0,.7-.6,1.2-1.3,1.2h-1.6l-27.7-30.4h0v28.5c0,.7-.5,1.3-1.3,1.3h-6c-.7,0-1.3-.6-1.3-1.3v-44.6h-.1Z"/>
  <path d="M266.8,322.2c0-.7.6-1.3,1.3-1.3h6.2c.7,0,1.3.6,1.3,1.3v43.9c0,.7-.6,1.3-1.3,1.3h-6.2c-.7,0-1.3-.6-1.3-1.3v-43.9Z"/>
  <path d="M291.4,321.2c0-.5.5-1,1.2-1h1.1c.5,0,.9.3,1.1.7l14.6,31.3h.2l14.6-31.3c.2-.4.5-.7,1.1-.7h1.1c.7,0,1.1.5,1.2,1l7.8,44.6c.2.9-.3,1.5-1.2,1.5h-6c-.6,0-1.1-.5-1.3-1l-3.9-25.1h-.2l-11.6,26.1c-.1.4-.5.7-1.1.7h-1.2c-.6,0-.9-.3-1.1-.7l-11.7-26.1h-.2l-3.9,25.1c0,.5-.6,1-1.2,1h-6c-.9,0-1.4-.6-1.3-1.5l7.9-44.6Z"/>
  <path d="M343.5,322.2c0-.7.5-1.3,1.3-1.3h27c.7,0,1.3.6,1.3,1.3v5.4c0,.7-.5,1.3-1.3,1.3h-19.6v10.9h16.4c.7,0,1.3.6,1.3,1.3v5.5c0,.7-.6,1.3-1.3,1.3h-16.4v11.6h19.6c.7,0,1.3.6,1.3,1.3v5.4c0,.7-.5,1.3-1.3,1.3h-27c-.7,0-1.3-.6-1.3-1.3v-43.9h0Z"/>
  <path d="M381.5,321.4c0-.7.6-1.2,1.3-1.2h1.7l27.6,29.3h0v-27.4c0-.7.5-1.3,1.3-1.3h6.1c.7,0,1.3.6,1.3,1.3v44.6c0,.7-.6,1.2-1.3,1.2h-1.6l-27.7-30.4h0v28.5c0,.7-.5,1.3-1.3,1.3h-6c-.7,0-1.3-.6-1.3-1.3v-44.6h-.1Z"/>
  <path d="M438,328.9h-10.1c-.7,0-1.3-.6-1.3-1.3v-5.4c0-.7.5-1.3,1.3-1.3h29c.7,0,1.3.6,1.3,1.3v5.4c0,.7-.5,1.3-1.3,1.3h-10.1v37.2c0,.7-.6,1.3-1.3,1.3h-6.2c-.7,0-1.3-.6-1.3-1.3v-37.2h0Z"/>
  <path d="M464,322.2c0-.7.6-1.3,1.3-1.3h6.2c.7,0,1.3.6,1.3,1.3v43.9c0,.7-.6,1.3-1.3,1.3h-6.2c-.7,0-1.3-.6-1.3-1.3v-43.9Z"/>
  <path d="M498.4,322.2c0-.7.5-1.3,1.3-1.3h6.1c.7,0,1.3.6,1.3,1.3v37.2h16.9c.7,0,1.3.6,1.3,1.3v5.4c0,.7-.5,1.3-1.3,1.3h-24.3c-.7,0-1.3-.6-1.3-1.3v-43.9h0Z"/>
  <path d="M530.9,322.2c0-.7.5-1.3,1.3-1.3h27c.7,0,1.3.6,1.3,1.3v5.4c0,.7-.5,1.3-1.3,1.3h-19.6v10.9h16.4c.7,0,1.3.6,1.3,1.3v5.5c0,.7-.6,1.3-1.3,1.3h-16.4v11.6h19.6c.7,0,1.3.6,1.3,1.3v5.4c0,.7-.5,1.3-1.3,1.3h-27c-.7,0-1.3-.6-1.3-1.3v-43.9h0Z"/>
  <path d="M589.4,359.4c8.4,0,15.2-6.8,15.2-15.2s-6.9-15.3-15.2-15.3-15.2,7-15.2,15.3,6.8,15.2,15.2,15.2M589.4,320.2c13.3,0,23.9,10.7,23.9,23.9s-10.6,23.8-23.9,23.8-23.8-10.5-23.8-23.8,10.5-23.9,23.8-23.9"/>
  <path d="M621,321.4c0-.7.6-1.2,1.3-1.2h1.7l27.6,29.3h0v-27.4c0-.7.5-1.3,1.3-1.3h6.1c.7,0,1.3.6,1.3,1.3v44.6c0,.7-.6,1.2-1.3,1.2h-1.6l-27.7-30.4h0v28.5c0,.7-.5,1.3-1.3,1.3h-6c-.7,0-1.3-.6-1.3-1.3v-44.6h0Z"/>
  <path d="M671.3,322.2c0-.7.5-1.3,1.3-1.3h27c.7,0,1.3.6,1.3,1.3v5.4c0,.7-.5,1.3-1.3,1.3h-19.6v10.9h16.4c.7,0,1.3.6,1.3,1.3v5.5c0,.7-.6,1.3-1.3,1.3h-16.4v11.6h19.6c.7,0,1.3.6,1.3,1.3v5.4c0,.7-.5,1.3-1.3,1.3h-27c-.7,0-1.3-.6-1.3-1.3v-43.9h0Z"/>
</svg>