<svg width="1455" height="1709" viewBox="0 0 1455 1709" fill="none" xmlns="http://www.w3.org/2000/svg">
<path d="M695.275 544.533C689.344 544.413 685.657 538.2 684.174 532.429C684.013 531.748 683.813 531.026 683.653 530.305C682.57 525.776 681.448 521.087 677.961 518.562C677.08 517.921 676.198 517.56 675.396 517.52C672.992 517.4 671.428 519.403 669.545 521.768C668.062 523.652 666.579 525.576 664.455 526.618C661.89 527.9 658.643 527.78 654.555 526.217C653.994 526.016 653.433 525.776 652.872 525.536C650.547 524.614 648.343 523.692 646.058 523.692C643.493 523.692 640.608 525.415 640.568 527.86C640.568 529.303 641.449 530.666 642.411 532.068C643.453 533.631 644.576 535.275 644.656 537.279C644.776 539.804 643.173 542.048 641.81 544.012C640.047 546.497 639.085 548.14 639.886 549.743C640.928 551.827 644.175 551.707 647.02 551.627H647.461C652.431 551.466 656.399 552.869 658.964 555.514C660.647 557.278 661.609 559.763 661.529 562.248C661.489 564.332 660.687 566.175 659.325 567.458C658.202 568.5 656.8 569.101 655.477 569.662C654.435 570.103 653.473 570.504 652.672 571.145C651.189 572.267 650.387 574.351 650.627 576.556C650.788 578.159 651.469 579.562 652.511 580.524C655.317 578.239 659.565 575.834 663.172 578.48C665.817 580.403 666.058 583.73 666.258 586.896C666.459 589.742 666.619 592.387 668.503 593.709C670.867 595.393 673.633 593.83 677.561 591.225C678.683 590.503 679.805 589.742 680.887 589.181C684.534 587.217 689.264 587.137 693.472 588.98C697.68 590.824 700.846 594.351 701.889 598.359C702.009 598.759 702.089 599.2 702.169 599.601C702.45 600.884 702.69 602.086 703.411 602.928C704.854 604.611 707.299 604.25 710.105 603.769C712.63 603.368 715.195 602.968 717.519 603.97C717.76 604.05 717.92 604.25 718.04 604.451C719.964 608.058 719.403 612.146 718.842 616.073C718.321 619.64 717.84 622.967 719.123 625.933C720.044 628.017 721.728 629.66 723.491 631.383C724.974 632.826 726.497 634.269 727.619 636.113C730.104 640.121 730.144 644.97 730.184 649.619C730.184 654.429 730.264 658.998 732.87 662.485C733.671 663.607 734.793 664.609 735.876 665.611C738.08 667.615 740.324 669.699 740.725 672.825C741.046 675.27 740.044 677.474 739.082 679.638C738.24 681.522 737.439 683.285 737.599 685.089C737.839 688.335 741.206 690.62 744.252 691.421C746.256 691.942 748.34 692.063 750.544 692.183C752.067 692.263 753.631 692.343 755.194 692.584C762.127 693.626 768.38 698.034 772.387 704.687C776.235 711.06 777.277 718.314 775.313 724.727C777.598 723.685 780.523 723.324 783.77 724.046C787.377 724.807 791.184 726.851 793.108 729.897C793.429 729.536 793.75 729.216 794.271 728.975C795.433 728.374 796.635 728.414 797.757 728.494C798.359 728.494 798.96 728.534 799.521 728.494C802.086 728.053 803.288 724.687 803.569 721.961C803.609 721.44 803.649 720.879 803.689 720.358C803.89 717.473 804.13 714.467 806.134 712.142C809.1 708.735 813.709 709.136 818.158 709.537C822.166 709.898 825.933 710.218 828.338 707.934C829.38 706.932 830.021 705.529 830.702 704.046L830.903 703.645C834.029 696.872 837.716 692.303 842.165 689.738C845.171 688.015 849.139 687.213 852.826 687.814C848.017 675.55 843.528 663.086 839.239 650.902C829.74 623.889 819.961 596.034 805.533 570.945C803.93 572.909 801.405 574.191 798.88 574.271C794.992 574.432 791.465 572.468 788.259 570.464C771.265 559.803 755.154 547.539 740.284 533.992L739.002 532.83C732.549 526.938 725.896 520.806 717.76 518.642C716.237 518.241 714.634 517.961 712.99 517.72C711.588 523.652 709.584 529.423 706.898 534.914C703.732 541.367 699.764 544.773 695.316 544.653L695.275 544.533Z" fill="white"/>
<path d="M770.504 705.769C766.816 699.677 761.125 695.629 754.833 694.708C753.39 694.507 751.867 694.427 750.384 694.347C748.18 694.227 745.895 694.106 743.651 693.545C739.803 692.543 735.715 689.618 735.395 685.289C735.194 682.924 736.156 680.84 737.078 678.796C737.96 676.832 738.761 675.029 738.521 673.145C738.2 670.821 736.356 669.057 734.352 667.254C733.19 666.212 732.028 665.089 731.066 663.847C728.06 659.759 728.02 654.669 727.98 649.699C727.98 645.13 727.9 640.802 725.735 637.315C724.774 635.752 723.371 634.429 721.928 633.026C720.044 631.223 718.12 629.379 717.038 626.854C715.515 623.367 716.076 619.52 716.597 615.833C717.119 612.226 717.599 608.819 716.237 605.893C714.513 605.332 712.429 605.653 710.345 605.973C707.179 606.454 703.892 606.975 701.688 604.37C700.606 603.128 700.245 601.524 699.965 600.082C699.885 599.681 699.804 599.28 699.684 598.919C698.802 595.553 696.117 592.587 692.51 590.984C688.903 589.421 684.895 589.461 681.809 591.104C680.767 591.665 679.725 592.346 678.643 593.068C675.036 595.433 670.907 598.158 667.14 595.513C664.415 593.589 664.214 590.262 663.974 587.056C663.773 584.251 663.613 581.565 661.769 580.243C659.405 578.519 656.319 580.243 654.154 581.926C654.315 582.207 654.355 582.527 654.235 582.848C654.034 583.249 653.674 583.489 653.233 583.489C653.072 583.489 652.912 583.489 652.792 583.409C652.712 583.409 652.672 583.329 652.591 583.289C652.351 583.529 652.11 583.73 651.95 583.89C645.217 590.783 638.684 597.998 632.552 605.372C630.468 607.857 629.786 609.66 630.428 611.063C630.989 612.306 632.472 612.907 634.035 613.548C634.355 613.668 634.716 613.829 635.037 613.949C642.652 617.356 646.82 627.215 643.894 635.03C641.369 641.804 635.117 645.731 629.065 649.499C624.055 652.625 618.845 655.871 615.919 660.681C614.837 662.444 614.396 664.007 614.556 665.41C614.757 667.133 615.919 668.656 617.162 670.219L617.803 671.061C625.979 681.963 625.658 698.515 617.282 709.256C617.522 709.416 617.803 709.537 618.043 709.737C619.927 711.26 620.608 713.625 621.21 715.749C623.855 725.248 627.662 734.386 632.552 742.882C634.556 746.409 636.64 748.012 638.644 747.772C639.566 747.652 640.488 747.09 641.409 746.489C641.93 746.169 642.451 745.848 642.972 745.567C647.902 743.123 653.754 745.367 657.12 748.493C660.647 751.82 662.651 756.228 664.535 760.837C665.377 762.882 666.298 765.206 668.142 766.328C668.863 766.769 669.745 767.05 670.667 767.33C671.188 767.491 671.709 767.651 672.19 767.811C676.759 769.495 679.605 773.502 682.37 777.39C683.332 778.753 684.334 780.155 685.416 781.438C687.981 784.484 692.029 786.648 695.316 786.648C697.159 786.648 698.642 786.007 699.764 784.684C700.686 783.562 701.167 782.079 701.688 780.516C702.369 778.432 703.091 776.308 704.934 774.825C706.337 773.703 708.101 773.182 709.824 772.661C712.469 771.859 714.113 771.298 714.353 769.615C714.433 769.094 714.313 768.493 714.153 767.891C714.032 767.33 713.912 766.809 713.912 766.248C713.712 762.16 717.72 759.314 721.808 758.312C722.569 758.112 723.411 757.952 724.212 757.792C726.898 757.27 729.463 756.749 731.226 755.066C732.188 754.144 732.829 752.982 733.551 751.7C734.272 750.417 735.034 749.054 736.116 747.932C737.759 746.289 739.964 745.407 741.887 744.646L762.929 736.389C764.933 735.628 767.177 734.706 768.58 733.103C769.341 732.221 769.862 731.139 770.424 729.977C770.864 729.055 771.345 728.093 771.947 727.171C772.307 726.65 772.828 726.25 773.309 725.809C772.989 725.528 772.828 725.127 772.949 724.727C775.033 718.715 774.151 711.781 770.464 705.689L770.504 705.769Z" fill="white"/>
<path d="M843.207 691.501C839.159 693.826 835.752 698.074 832.827 704.447L832.626 704.848C831.905 706.451 831.143 708.094 829.781 709.417C826.654 712.383 822.206 711.982 817.917 711.621C813.829 711.26 809.982 710.9 807.737 713.505C806.214 715.268 806.014 717.793 805.853 720.438C805.813 720.999 805.773 721.561 805.733 722.082C805.373 725.729 803.649 729.897 799.922 730.538C799.16 730.658 798.399 730.618 797.677 730.618C796.756 730.578 795.954 730.538 795.313 730.859C793.83 731.66 794.271 733.584 795.192 736.67C795.513 737.712 795.834 738.835 795.994 739.837C796.876 745.327 792.387 749.896 787.778 751.86C785.133 752.982 782.327 753.543 779.642 754.105C777.718 754.505 775.754 754.866 773.911 755.467C772.388 755.948 771.506 756.549 771.265 757.311C770.744 758.914 773.189 760.397 775.353 761.319C777.197 762.12 779.281 764.004 779.682 766.008C779.882 767.09 779.602 768.092 778.84 768.894C777.718 770.056 776.195 770.096 774.832 770.096C774.351 770.096 773.911 770.096 773.47 770.176C770.584 770.577 768.901 774.104 769.181 776.989C769.502 780.276 771.586 783.282 773.43 785.887L794.631 816.347C794.832 816.667 794.872 817.028 794.752 817.389C794.591 817.75 794.311 817.99 793.91 818.03C790.303 818.631 786.656 818.511 783.089 818.431C779.962 818.351 776.716 818.23 773.63 818.671C767.418 819.473 760.644 823.641 760.364 829.733C760.003 837.308 769.181 841.957 777.878 843.801C787.497 845.845 797.557 849.091 799.24 857.948C799.601 859.792 799.481 861.676 799.361 863.479C799.28 864.962 799.2 866.365 799.361 867.768C799.561 869.571 800.603 871.415 801.846 872.337C802.607 872.898 803.449 873.098 804.25 872.938C805.493 872.697 806.495 871.695 807.577 870.613C808.899 869.331 810.382 867.848 812.507 867.688C816.635 867.367 818.679 872.056 819.24 876.064C819.881 880.633 821.164 883.038 823.208 883.358C825.332 883.719 826.654 881.956 828.698 879.03C830.462 876.505 832.466 873.659 835.712 873.379C840.041 873.058 842.005 877.266 843.728 881.034C845.291 884.441 846.734 887.607 849.58 887.887C852.024 888.128 853.988 886.004 856.072 883.799C858.397 881.314 861.042 878.509 864.609 879.23C868.697 880.032 870.14 884.641 871.182 888.008C872.104 890.933 873.186 892.617 874.389 892.897C876.392 893.298 879.358 890.092 881.723 887.446C883.046 886.004 884.288 884.641 885.49 883.639C886.773 882.597 888.336 881.675 889.939 880.713C893.987 878.349 897.835 876.104 897.795 871.615C897.795 870.814 897.594 869.972 897.434 869.09C897.234 868.249 897.073 867.367 897.033 866.445C896.793 861.395 900.881 857.307 904.768 855.624C908.977 853.82 913.666 853.86 917.834 853.86C919.517 853.86 922.684 853.86 924.367 856.025C925.329 857.267 925.529 858.75 925.69 860.073C925.73 860.554 925.81 860.994 925.89 861.475C926.411 864.081 928.335 866.085 931.261 867.127C935.349 868.569 940.399 867.808 943.565 865.203C949.376 860.514 951.34 852.418 952.863 844.522C954.266 837.148 956.029 828.01 962.402 822.318C963.564 821.276 964.927 820.435 966.33 819.713C963.845 818.872 961.56 817.589 959.717 815.425C957.593 812.94 956.671 809.934 955.829 807.049C955.428 805.646 954.987 804.243 954.426 802.92C953.504 800.796 951.581 798.953 949.777 798.351C948.855 798.071 948.054 798.111 947.332 798.552C946.731 798.913 945.97 798.953 945.328 798.672C908.375 781.919 875.431 743.564 855.03 693.465C854.589 692.343 854.189 691.221 853.748 690.099C850.261 689.057 846.213 689.738 843.247 691.461L843.207 691.501Z" fill="white"/>
<path d="M640.648 363.978L622.291 353.638C619.686 352.155 616.44 350.351 613.193 350.632C610.308 350.912 607.542 352.836 604.937 354.72C601.33 357.285 597.603 359.89 593.234 358.567C592.032 358.207 590.99 357.525 589.988 356.924C588.906 356.243 587.864 355.602 586.741 355.401C583.615 354.76 581.05 357.525 578.365 360.411C575.599 363.417 572.754 366.503 568.746 366.503H568.626C566.181 366.503 564.017 365.18 562.093 364.018L561.652 363.778C542.294 352.275 516.483 352.636 497.405 364.619L496.443 365.22C494.239 366.623 491.995 368.106 489.309 368.627C484.861 369.509 480.773 367.545 476.805 365.701C473.799 364.299 470.713 362.816 467.587 362.655C463.579 362.455 459.531 364.379 455.643 366.262C450.793 368.587 445.784 370.992 440.453 369.469C437.247 368.547 434.722 366.303 432.277 364.138C429.632 361.814 427.147 359.609 423.981 359.128C422.578 358.928 421.095 359.088 419.532 359.249C417.568 359.449 415.524 359.69 413.52 359.128C410.795 358.367 408.47 356.363 406.226 354.439C402.779 351.473 400.494 349.75 397.929 351.033C397.328 351.313 396.767 351.794 396.166 352.315C395.004 353.277 393.761 354.239 391.958 354.319C388.23 354.199 387.469 349.87 386.908 346.744L386.787 345.943C385.825 340.812 381.216 336.324 375.806 335.322C370.595 334.36 364.744 336.364 360.896 340.492C359.974 341.454 359.093 342.616 358.251 343.698C355.686 347.025 353.001 350.431 348.712 350.952C343.823 351.513 340.416 347.946 337.129 344.5C334.925 342.175 332.601 339.77 329.915 338.688C323.984 336.324 317.411 340.572 313.964 343.337C307.15 348.868 300.658 358.006 302.902 367.024C303.263 368.427 303.784 369.789 304.385 371.192C304.866 372.435 305.387 373.677 305.788 375C308.112 383.096 305.227 391.472 301.74 400.049L292.441 423.014C298.413 422.333 304.465 422.252 310.437 422.814C315.607 423.295 323.062 424.537 328.272 429.346C333.082 433.795 335.206 442.172 330.797 447.542C330.396 448.063 329.915 448.544 329.434 449.025C328.432 450.067 327.47 451.029 327.23 452.191C327.07 453.073 327.31 453.915 327.951 454.676C328.993 455.959 330.917 456.84 332.721 456.84C334.484 456.84 336.208 456.359 338.051 455.879C339.494 455.478 340.977 455.077 342.5 454.917C346.388 454.436 350.957 456.4 351.638 460.207C351.678 459.846 351.718 459.486 351.838 459.125C352.52 457.041 354.163 455.558 355.806 454.195C361.217 449.666 367.79 444.897 375.485 444.015C382.86 443.133 391.958 447.141 393.801 455.077C393.961 455.718 394.042 456.359 394.162 457.001C394.402 458.524 394.603 459.967 395.444 460.969C396.767 462.572 399.132 462.652 401.657 462.772C404.462 462.892 407.348 463.053 409.312 465.177C410.875 466.86 411.155 469.104 411.476 471.269C411.757 473.313 411.997 475.196 413.32 476.279C414.803 477.521 417.007 477.2 419.331 476.88C419.973 476.8 420.574 476.719 421.175 476.639C429.832 475.798 437.127 481.569 444.1 487.1C451.355 492.831 458.168 498.242 466.224 496.639C467.747 496.318 469.31 495.757 470.833 495.196C474.2 493.953 477.727 492.671 481.253 493.993C484.66 495.276 486.424 498.362 488.187 501.368C489.269 503.252 490.311 505.055 491.714 506.418L494.96 497.48C495.321 496.438 495.802 495.116 496.804 494.194C497.766 493.272 499.049 492.871 500.491 492.951C502.535 493.072 504.78 494.314 506.223 496.037C507.064 497.079 507.746 498.202 508.387 499.284C509.269 500.767 510.11 502.169 511.273 503.212C515.361 506.859 522.415 504.935 526.583 501.047C529.108 498.723 531.032 495.877 533.036 492.871C534.518 490.707 536.041 488.463 537.805 486.419C542.133 481.489 549.267 477.681 555.44 480.407C558.245 481.649 560.329 483.974 562.293 486.218C564.538 488.783 566.662 491.188 569.668 491.789C570.509 491.949 571.391 491.949 572.353 491.989C573.716 491.989 575.159 491.989 576.561 492.551C579.447 493.633 580.89 496.198 582.333 498.723C583.174 500.206 584.056 501.769 585.218 502.891C585.86 503.532 586.621 504.133 587.463 504.735C589.868 506.578 592.593 508.662 591.871 511.909C591.391 514.073 589.547 515.235 587.904 516.237C586.862 516.878 585.86 517.52 585.218 518.321C583.375 520.686 584.818 524.373 586.862 526.818C587.583 527.66 588.345 528.421 589.146 529.223C590.95 531.066 592.873 532.95 593.875 535.475C594.396 536.757 594.637 538.08 594.917 539.403C595.358 541.607 595.759 543.691 597.242 544.893C599.126 546.497 601.891 545.976 604.777 545.455C606.42 545.134 608.063 544.853 609.787 544.893C614.316 545.014 617.963 547.779 621.45 550.464C622.812 551.506 624.215 552.589 625.618 553.43C628.664 555.314 633.073 555.755 635.918 554.432C637.361 553.751 638.203 552.669 638.483 551.226C638.323 551.025 638.163 550.825 638.083 550.625C636.6 547.699 638.483 545.014 640.167 542.649C641.409 540.885 642.692 539.042 642.611 537.238C642.571 535.836 641.69 534.553 640.728 533.15C639.605 531.507 638.483 529.824 638.523 527.7C638.604 523.932 642.531 521.407 646.178 521.367C648.904 521.367 651.389 522.369 653.834 523.371C654.395 523.571 654.916 523.812 655.477 524.012C659.004 525.335 661.649 525.495 663.653 524.533C665.336 523.692 666.699 521.968 668.022 520.285C670.066 517.68 672.19 514.995 675.717 515.235C676.959 515.315 678.161 515.796 679.404 516.678C683.532 519.684 684.775 524.774 685.937 529.663C686.097 530.385 686.257 531.066 686.458 531.748C687.74 536.757 690.746 542.128 695.476 542.208C699.924 542.368 703.171 537.639 705.095 533.671C707.66 528.381 709.623 522.81 710.986 517.079C709.022 516.758 707.018 516.438 705.014 515.876C699.403 514.233 694.674 510.867 691.147 508.101C671.188 492.39 657.761 468.984 654.274 443.815C654.034 442.091 653.834 440.368 653.633 438.645C652.832 431.711 652.11 425.178 648.824 419.607C646.499 415.68 642.211 412.674 637.882 411.872C635.798 411.511 632.832 411.511 630.267 413.555C629.786 413.956 629.145 414.116 628.544 413.996C627.943 413.916 627.381 413.555 627.061 413.034C624.496 408.986 625.297 403.496 629.105 399.368C632.311 395.921 636.64 394.438 640.407 395.4C641.209 393.115 641.209 390.43 641.209 387.624C641.209 385.22 641.209 382.695 641.69 380.25C642.371 376.883 644.976 374.118 647.862 372.635C648.543 368.787 643.814 365.461 640.808 363.778L640.648 363.978Z" fill="white"/>
<path d="M679.965 94.3281C674.234 98.9372 666.98 101.462 660.447 103.586C660.768 109.037 660.607 115.049 656.76 119.017C655.157 120.66 653.153 121.702 651.189 122.704C650.026 123.305 648.904 123.866 647.862 124.588C644.015 127.193 641.81 132.002 642.011 137.413C642.211 142.823 644.776 147.432 648.824 149.717L649.986 150.358C653.954 152.563 659.405 155.568 657.401 160.258C656.76 161.741 655.477 162.662 654.355 163.464C653.593 164.025 652.832 164.546 652.351 165.227C650.788 167.312 651.509 170.598 654.515 175.007L677.04 207.991C678.483 210.116 680.246 212.4 682.571 212.641C684.815 212.881 686.779 211.238 688.743 209.635C694.835 204.745 700.045 202.34 705.295 201.98C711.147 201.579 718.521 204.705 720.485 211.198C721.287 213.803 721.127 216.488 720.926 219.053C720.846 220.296 720.766 221.578 720.806 222.821C720.966 228.351 723.571 233.762 727.82 237.289C727.94 237.369 727.94 237.529 728.02 237.65C732.349 237.65 734.994 237.209 735.635 234.804C735.836 234.043 735.755 233.081 735.635 232.079C735.555 231.237 735.515 230.436 735.555 229.594C736.036 219.855 747.979 216.769 758.119 217.009C761.526 217.089 765.414 217.45 767.899 220.336C768.821 221.418 769.342 222.62 769.822 223.702C770.183 224.504 770.504 225.225 770.905 225.786C771.826 226.989 773.51 227.109 774.712 226.868C775.915 226.628 777.397 225.826 777.758 224.344C777.918 223.742 778.319 223.181 778.88 222.901C783.008 220.817 784.972 217.931 787.898 213.442C788.179 213.001 788.619 212.681 789.141 212.52C795.994 210.556 803.489 213.683 808.138 220.416C811.665 225.506 812.747 231.317 811.304 236.367C812.827 235.285 813.829 233.802 814.47 232.48C817.276 226.708 816.434 217.851 812.627 212.28C809.821 208.192 806.054 204.625 802.407 201.138C797.277 196.248 791.986 191.198 788.9 184.505C782.327 170.277 787.978 153.885 792.788 142.823C793.349 141.541 793.87 140.379 793.79 139.337C793.669 136.291 788.86 134.888 785.814 135.008C785.012 135.008 784.171 135.048 783.329 135.128C779.441 135.329 774.993 135.569 771.506 132.924C769.061 131.08 767.738 128.435 767.618 125.269C767.418 119.297 771.466 113.005 775.554 109.398L777.558 107.674C782.848 103.145 788.299 98.4963 787.698 92.6448C786.776 83.6271 772.828 81.8636 766.857 81.543L707.339 78.1764C701.328 77.8558 695.155 77.3748 689.063 76.5732C689.224 82.9057 685.817 89.679 679.885 94.4083L679.965 94.3281Z" fill="white"/>
<path d="M1057.59 1565.58C1058.35 1563.86 1059.11 1562.21 1059.59 1560.53C1060.36 1558.04 1060.6 1555.4 1060.88 1552.63C1060.96 1551.63 1061.08 1550.63 1061.2 1549.59C1063.76 1528.99 1075.83 1511.31 1087.49 1494.2C1099.79 1476.16 1111.46 1459.09 1113.02 1438.81C1105.8 1435.16 1094.98 1439.73 1089.89 1446.5C1089.33 1447.23 1088.81 1447.99 1088.29 1448.75C1086.33 1451.55 1084.28 1454.48 1081.24 1456.52C1078.63 1458.25 1075.22 1458.97 1072.3 1458.33C1069.97 1457.85 1068.13 1456.64 1066.93 1454.8C1065.81 1453.08 1065.53 1451.11 1065.24 1449.43C1065.12 1448.63 1065 1447.83 1064.76 1447.03C1064.48 1446.06 1063.72 1445.06 1062.96 1444.74C1062.6 1444.58 1062.48 1444.66 1062.4 1444.74C1062.24 1444.82 1061.88 1445.14 1061.48 1446.18C1060.48 1448.87 1060.48 1451.84 1060.48 1455C1060.48 1456.48 1060.48 1457.97 1060.36 1459.41C1059.99 1464.66 1057.63 1470.87 1052.06 1472.6C1047.69 1473.92 1043.36 1471.91 1039.87 1470.31C1029.25 1465.34 1014.42 1461.01 1004.16 1468.67C1001.6 1470.59 999.555 1473.12 997.391 1475.76C995.588 1477.97 993.744 1480.21 991.54 1482.21C982.642 1490.19 970.258 1491.59 957.272 1492.43L909.979 1495.48C903.246 1495.92 895.631 1496.4 889.378 1499.57C887.695 1500.41 886.052 1501.49 884.368 1502.62C881.042 1504.78 877.635 1507.02 873.507 1507.83C866.934 1509.11 859.88 1506.58 852.025 1500.13C850.862 1499.17 849.7 1498.21 848.578 1497.2C844.209 1493.44 840.081 1489.87 835.031 1488.19C830.863 1486.78 826.775 1485.54 822.166 1485.54H822.126C820.963 1485.54 820.002 1484.62 819.961 1483.5C819.721 1479.05 818.358 1472.88 815.352 1470.19C814.27 1469.23 813.028 1468.79 811.625 1468.91C809.982 1469.03 808.299 1469.99 806.776 1470.83L791.786 1479.33C788.419 1481.25 784.572 1483.42 782.367 1486.66C781.406 1488.07 780.684 1489.75 779.923 1491.47C778.8 1494.12 777.638 1496.84 775.434 1499.01C768.781 1505.58 757.118 1502.53 749.743 1495.76C747.739 1493.92 745.896 1491.91 744.092 1489.95C740.846 1486.42 737.719 1483.02 733.952 1480.81C732.629 1487.22 729.744 1493.4 725.576 1498.45C723.652 1500.81 721.447 1502.98 719.283 1505.02C716.999 1507.22 714.834 1509.35 712.951 1511.71C705.656 1520.97 703.412 1534.68 707.059 1547.5C711.147 1561.69 721.087 1572.23 728.702 1578.52C730.104 1579.69 731.748 1580.93 733.351 1581.01C734.874 1581.01 736.557 1580.09 738.281 1579.05C738.882 1578.68 739.483 1578.32 740.084 1578C749.102 1573.15 759.763 1575.72 767.137 1578.76C770.223 1580.01 773.189 1581.53 776.115 1582.93C781.045 1585.38 785.694 1587.7 790.744 1589.02C792.828 1589.59 794.952 1589.99 797.076 1590.35C801.645 1591.19 806.375 1592.07 810.583 1594.48C815.112 1597.08 818.398 1601.05 821.605 1604.9C824.731 1608.66 827.657 1612.23 831.584 1614.39C835.632 1616.64 840.322 1617.24 845.291 1617.84C849.179 1618.32 853.227 1618.84 857.075 1620.21C863.808 1622.61 869.098 1627.38 874.228 1631.99C878.557 1635.88 882.685 1639.56 887.575 1641.93C895.51 1645.78 904.368 1645.7 913.826 1645.7C921.161 1645.7 928.696 1645.66 935.91 1647.54C951.1 1651.59 962.162 1663.33 972.863 1674.71C983.804 1686.34 994.105 1697.28 1008.41 1700.72C1015.23 1702.37 1022.72 1702.13 1029.94 1701.93C1032.5 1701.85 1035.07 1701.77 1037.63 1701.77C1046.01 1701.77 1054.34 1702.65 1061.6 1707.18L1062 1707.42C1063.32 1708.26 1064.68 1709.1 1065.61 1708.86C1066.69 1708.62 1067.33 1706.9 1067.45 1705.33C1067.65 1701.85 1066.37 1698.44 1065 1694.83C1063.64 1691.23 1062.24 1687.5 1062.24 1683.45C1062.24 1673.07 1070.9 1666.06 1078.55 1659.88C1080.07 1658.64 1081.56 1657.44 1082.96 1656.24C1084.72 1654.71 1086.45 1652.99 1087.01 1650.99C1088.13 1647.02 1084.96 1643.49 1081.28 1639.4C1077.51 1635.24 1073.26 1630.55 1073.98 1624.57C1074.18 1622.97 1074.7 1621.37 1075.18 1619.85C1076.27 1616.52 1076.67 1614.84 1075.55 1613.91C1074.78 1613.27 1073.42 1613.23 1071.86 1613.23C1071.1 1613.23 1070.29 1613.23 1069.53 1613.15C1061.48 1612.35 1056.27 1604.29 1054.78 1590.51C1054.1 1584.34 1053.38 1577.32 1055.43 1570.75C1056.03 1568.91 1056.79 1567.14 1057.55 1565.46L1057.59 1565.58Z" fill="white"/>
<path d="M347.991 1071.41C342.139 1058.78 340.937 1048.76 344.383 1040.87C342.059 1039.91 339.093 1040.11 335.967 1040.39C334.965 1040.47 333.923 1040.55 332.961 1040.59C329.514 1040.67 324.785 1039.55 322.059 1036.62C320.496 1034.94 319.815 1032.89 320.056 1030.73C320.496 1026.88 323.703 1024.56 326.308 1022.67C326.789 1022.31 327.31 1021.95 327.791 1021.59C329.234 1020.47 330.396 1018.5 330.436 1017.18C330.436 1016.54 330.196 1016.26 329.955 1016.1C329.153 1015.46 327.751 1015.78 325.586 1016.42C323.222 1017.1 320.256 1017.98 317.651 1016.42C317.09 1016.1 316.729 1015.54 316.609 1014.94C316.488 1014.3 316.649 1013.65 317.05 1013.17C320.456 1009.01 323.102 1004.08 324.665 998.906C324.985 997.904 325.226 996.862 324.985 996.14C324.825 995.699 324.464 995.379 323.863 995.138C322.861 994.777 321.538 994.938 320.657 995.539C318.773 996.781 317.731 999.186 316.649 1001.95C316.288 1002.87 315.406 1003.43 314.404 1003.31C313.443 1003.23 312.641 1002.47 312.481 1001.51C311.398 995.258 305.827 990.088 299.495 989.447L298.533 989.367C296.89 989.247 295.006 989.126 293.323 987.964C291.559 986.762 290.718 984.958 289.996 983.355C289.475 982.193 288.954 981.071 288.233 980.55C287.752 980.189 287.151 980.109 286.429 980.229C285.067 980.469 283.544 981.592 282.662 982.954C281.9 984.157 281.339 985.519 280.738 987.002C280.017 988.726 279.295 990.529 278.133 992.172C274.846 996.862 269.556 998.705 264.426 1000.43C260.378 1001.83 256.53 1003.15 253.805 1005.76C251.761 1007.72 250.358 1010.37 248.875 1013.21C246.631 1017.5 244.306 1021.91 239.577 1023.99C237.613 1024.88 235.569 1025.16 233.605 1025.44C232.202 1025.64 230.84 1025.84 229.637 1026.24C226.591 1027.24 224.147 1029.57 221.581 1032.01C219.457 1034.01 217.253 1036.1 214.608 1037.58C209.518 1040.43 203.626 1040.67 198.456 1040.87C191.923 1041.11 183.787 1041.43 176.853 1038.1C169.96 1034.78 164.228 1026.28 167.034 1018.42C167.876 1016.1 169.278 1014.22 170.601 1012.37C172.084 1010.37 173.487 1008.44 173.847 1006.36C174.288 1003.88 173.607 1001.95 172.004 1000.95C170.2 999.827 167.715 1000.03 165.751 1001.47C160.742 1005.08 158.377 1014.3 156.694 1021.03L146.233 1060.87C145.271 1064.55 144.189 1068.68 145.191 1072.37C146.594 1077.5 151.604 1080.63 156.854 1083.91C158.337 1084.83 159.82 1085.76 161.223 1086.76C178.697 1098.9 185.07 1121.51 189.037 1141.99C191.162 1153.09 192.204 1164.47 185.47 1172.77C183.947 1174.65 182.104 1176.17 180.34 1177.66C178.456 1179.22 176.693 1180.7 175.37 1182.51C173.968 1184.39 173.366 1187.12 173.887 1189.2C174.168 1190.36 174.769 1191.2 175.731 1191.64C177.054 1192.29 178.857 1192.13 180.781 1191.92C183.426 1191.68 186.472 1191.36 189.037 1193.29C190.681 1194.53 191.562 1196.29 192.244 1197.7L196.973 1207.31C199.618 1212.65 202.023 1218.34 200.38 1224.03C199.338 1227.63 195.851 1230.68 191.923 1231.4C189.959 1231.76 188.116 1231.48 186.593 1230.64C185.15 1233.73 185.51 1237.69 185.871 1241.86C186.312 1246.83 186.753 1252 184.388 1256.53C182.945 1259.26 180.741 1261.26 178.617 1263.18C176.773 1264.87 175.01 1266.43 173.928 1268.35C171.362 1272.84 172.645 1278.33 173.968 1284.15C175.25 1289.72 176.573 1295.45 174.769 1301.02C172.926 1306.63 168.477 1310.4 164.148 1314.04C163.267 1314.81 162.385 1315.53 161.503 1316.29C159.419 1318.13 152.846 1324.59 154.93 1330.72C155.932 1333.68 158.738 1335.89 161.703 1338.05C170.641 1344.5 180.02 1350.6 189.558 1356.13C199.017 1361.62 209.277 1366.75 219.898 1367.03C229.196 1367.31 238.495 1363.26 245.629 1356.01C252.803 1348.75 256.691 1339.33 256.29 1330.12L256.21 1328.83C256.049 1326.07 255.889 1322.98 257.332 1320.18C259.055 1316.89 262.462 1315.17 264.987 1313.92C270.478 1311.16 276.69 1308.07 283.423 1307.23C291.199 1306.27 298.533 1308.83 302.581 1313.88C303.984 1315.65 305.146 1317.73 306.228 1319.74C308.874 1324.55 310.757 1327.51 313.803 1327.23C316.048 1327.07 318.172 1324.99 320.056 1321.06C327.51 1305.79 328.151 1288.88 328.873 1271C329.234 1261.66 329.634 1252 331.077 1242.7C332.159 1235.85 333.803 1228.88 335.446 1222.18C339.374 1205.87 343.101 1190.44 339.213 1175.13C338.532 1172.41 337.53 1169.6 336.608 1166.92C334.524 1160.86 332.32 1154.61 332.761 1147.96C333.402 1138.14 339.374 1130.2 345.145 1122.51C350.596 1115.29 355.726 1108.48 356.688 1100.3C357.69 1091.65 353.642 1083.07 349.674 1074.81L348.071 1071.41H347.991Z" fill="white"/>
<path d="M954.988 845.003C953.384 853.259 951.3 861.796 944.928 866.966C941.12 870.052 935.349 870.974 930.499 869.251C926.852 867.928 924.447 865.363 923.766 861.956C923.646 861.435 923.606 860.914 923.526 860.393C923.405 859.231 923.245 858.149 922.644 857.387C921.522 855.945 919.117 856.065 916.953 856.025C913.225 856.025 909.097 856.105 905.57 857.628C902.324 858.991 898.957 862.317 899.158 866.325C899.158 867.087 899.358 867.848 899.518 868.65C899.719 869.612 899.919 870.573 899.919 871.615C899.999 877.347 895.23 880.152 891.022 882.597C889.459 883.519 888.016 884.36 886.853 885.322C885.771 886.204 884.569 887.527 883.326 888.889C880.641 891.855 877.876 894.861 875.07 895.061C872.866 896.344 872.184 899.35 872.265 901.755C872.305 903.037 872.505 904.32 872.705 905.682C872.946 907.326 873.226 909.009 873.186 910.772C873.106 913.738 872.224 916.624 871.303 919.469C870.14 923.117 869.058 926.563 869.9 929.81C870.581 929.609 871.343 929.489 872.104 929.489H872.265C875.551 929.529 878.477 931.573 881.282 933.537C885.05 936.182 887.535 937.665 889.939 936.062C891.823 934.82 892.224 932.255 892.705 929.529C893.226 926.363 893.747 923.117 896.633 921.473C898.316 920.511 900.52 920.391 903.125 921.113C906.612 922.115 909.738 924.038 912.183 926.724C912.945 927.565 913.626 928.487 914.348 929.409C916.271 931.894 918.075 934.259 920.76 934.78C922.884 935.18 925.169 934.379 927.574 933.497C930.7 932.335 933.946 931.172 936.992 932.896C938.315 933.657 939.397 934.9 940.439 936.102C942.122 938.066 943.244 939.228 944.647 938.747C945.128 938.587 945.569 938.226 946.05 937.826C946.812 937.224 947.653 936.543 948.815 936.383C950.579 936.182 951.861 937.345 952.984 938.347C953.425 938.747 953.825 939.108 954.266 939.429C955.268 940.07 956.35 940.23 957.553 939.91C959.957 939.268 962.723 936.623 964.326 933.537L964.687 932.816C966.931 928.407 969.697 922.956 975.067 922.596C976.751 922.515 978.274 922.956 979.756 923.397C981.159 923.798 982.442 924.199 983.764 924.119C986.129 923.918 988.013 922.235 989.977 920.391C991.219 919.269 992.502 918.067 993.984 917.225C995.387 916.383 997.03 915.943 998.674 915.782C998.674 915.742 998.634 915.702 998.594 915.662C998.513 911.414 996.469 907.245 993.143 904.56C992.702 904.199 992.221 903.839 991.74 903.478C990.137 902.316 988.494 901.113 987.612 899.19C986.81 897.426 986.85 895.462 987.772 893.538C989.055 890.813 991.981 888.449 995.147 887.607C997.431 887.006 999.796 886.885 1002.04 886.765C1004.41 886.645 1006.65 886.525 1008.81 885.883C1011.3 885.162 1013.66 883.158 1014.54 880.954C1014.95 879.992 1015.27 878.589 1014.46 877.146C1013.7 875.744 1012.18 874.862 1010.58 873.9C1009.33 873.179 1008.05 872.457 1007.01 871.375C1003.44 867.768 1003.8 862.077 1004.53 857.468C1005.13 853.54 1005.89 849.532 1006.81 845.484C1007.37 842.959 1007.97 840.554 1009.41 838.47C1009.94 837.709 1010.62 837.068 1011.3 836.547C1007.85 835.504 1004.45 834.222 1001.16 832.619C998.794 831.457 996.469 830.174 994.145 828.891C989.095 826.086 984.366 823.441 979.075 822.278C977.512 821.918 975.869 821.677 974.266 821.437C972.703 821.196 971.099 820.956 969.536 820.635C967.372 821.357 965.368 822.479 963.685 823.962C957.873 829.132 956.19 837.909 954.827 844.923L954.988 845.003Z" fill="white"/>
<path d="M640.087 73.4875C634.997 76.814 627.222 77.7358 622.212 73.0867C621.771 72.6859 621.33 72.205 620.929 71.7641C620.248 71.0026 619.607 70.3213 618.845 69.8403C615.959 68.0368 611.871 70.0407 609.867 73.0466C608.344 75.3311 607.623 77.9763 606.861 80.8219C606.541 81.9441 606.22 83.1064 605.859 84.2286C605.218 86.1924 604.056 88.9178 601.451 89.9198C599.006 90.8816 596.681 89.8396 594.477 88.8376C592.914 88.1162 591.391 87.475 589.988 87.515C588.746 87.515 587.543 88.1563 586.581 89.2785C585.419 90.6412 584.898 92.5249 585.179 94.1681C585.78 97.7351 588.946 100.18 591.712 101.222C592.152 101.382 592.433 101.823 592.393 102.304C592.393 102.785 592.032 103.186 591.591 103.306C587.543 104.308 584.217 107.875 582.934 112.644C581.652 117.374 582.734 122.143 585.78 125.029C587.183 126.351 588.826 127.393 590.589 128.435C592.393 129.518 594.237 130.64 595.8 132.163C601.21 137.373 601.932 146.751 597.523 153.485C593.555 159.496 585.86 163.184 577.844 162.903C575.279 162.783 572.233 162.703 571.351 164.506C571.031 165.188 571.031 166.109 571.111 166.871C571.191 168.153 571.351 169.476 571.512 170.759C571.873 173.885 572.273 177.131 571.592 180.337C570.991 183.263 569.107 186.069 566.742 187.632C564.979 188.794 563.015 189.195 561.131 188.754C557.845 188.033 555.961 185.347 554.117 182.742C552.755 180.778 551.432 178.935 549.629 177.893C547.344 176.57 544.699 177.372 542.976 178.534C541.252 179.696 539.529 181.86 539.889 184.465C539.97 184.946 540.09 185.427 540.17 185.868C540.37 186.75 540.611 187.632 540.571 188.594C540.491 192.401 536.843 194.966 533.517 196.088C532.675 196.369 531.794 196.609 530.912 196.85C528.667 197.451 526.543 198.012 524.9 199.335C521.253 202.301 521.493 207.391 521.774 212.761C521.934 216.128 522.134 219.615 521.333 222.821C519.85 228.873 514.519 233.722 508.347 234.564C507.666 234.644 506.985 234.684 506.303 234.724C501.414 234.724 496.604 232.32 493.678 228.432C491.995 231.398 489.47 234.404 485.823 234.323C481.454 234.163 478.809 229.474 478.448 224.905C478.368 223.863 478.368 222.741 478.328 221.659C478.328 218.853 478.248 216.208 477.006 214.004C476.044 212.28 473.719 211.398 472.076 211.559C471.274 211.639 470.272 211.96 469.912 213.122C469.912 213.202 469.791 213.242 469.751 213.282C470.192 214.685 470.513 216.328 470.713 218.132C471.234 222.741 471.595 227.55 469.511 231.758C467.587 235.646 464.02 238.091 460.573 240.455C457.888 242.299 455.082 244.223 453.239 246.788C447.387 254.844 451.956 266.667 458.168 275.043L459.251 276.486C463.018 281.496 467.266 287.187 466.906 293.76C466.825 294.802 466.665 295.884 466.505 297.007C466.064 299.852 465.623 302.537 467.226 304.221C468.308 305.383 470.072 305.704 471.956 306.024C472.877 306.185 473.759 306.345 474.641 306.626C479.17 307.988 482.056 311.715 484.861 315.323C486.665 317.607 488.508 320.012 490.713 321.695C492.236 322.857 493.919 323.699 495.763 324.581C496.524 324.982 497.326 325.342 498.087 325.743C509.429 331.835 516.884 342.977 523.457 352.796C523.617 353.077 523.657 353.357 523.577 353.638C537.124 352.275 551.112 355 562.855 361.934L563.296 362.175C565.059 363.217 566.863 364.299 568.746 364.339H568.827C571.913 364.339 574.317 361.734 576.882 358.928C579.848 355.722 582.854 352.355 587.263 353.237C588.746 353.518 590.028 354.319 591.231 355.041C592.152 355.642 593.034 356.163 593.996 356.483C597.323 357.525 600.449 355.321 603.775 352.956C606.661 350.912 609.627 348.828 613.114 348.468C617.001 348.107 620.609 350.111 623.454 351.714L641.81 362.054C647.141 365.06 649.946 368.467 650.067 371.874C650.628 371.713 651.189 371.593 651.71 371.553C653.674 371.393 655.397 371.954 656.64 373.156L665.577 366.623C672.27 361.734 674.755 352.035 671.589 343.057C669.024 335.723 663.573 329.51 658.283 323.539C657.201 322.296 656.078 321.054 654.996 319.771C651.349 315.523 647.982 310.834 647.702 305.183C647.542 301.896 648.504 298.73 649.345 295.965C652.03 287.267 655.718 275.324 665.016 268.751C669.465 265.625 674.635 264.102 679.605 262.619C684.134 261.296 688.382 260.014 692.109 257.689C695.516 255.525 698.562 252.359 701.528 249.313C706.859 243.782 712.389 238.091 720.365 237.53C721.808 237.41 723.411 237.45 725.054 237.53C721.207 233.642 718.842 228.272 718.722 222.821C718.722 221.498 718.762 220.176 718.842 218.853C719.002 216.368 719.163 214.004 718.481 211.759C716.798 206.308 710.586 203.743 705.496 204.064C700.726 204.385 695.877 206.629 690.266 211.158C687.981 213.002 685.536 215.005 682.41 214.725C679.164 214.404 677.04 211.679 675.316 209.114L652.792 176.129C649.225 170.879 648.503 166.751 650.708 163.825C651.389 162.903 652.311 162.262 653.193 161.621C654.195 160.899 655.117 160.258 655.517 159.296C656.64 156.651 653.393 154.567 649.065 152.162L647.862 151.481C643.133 148.795 640.207 143.505 639.967 137.373C639.726 131.201 642.251 125.71 646.74 122.664C647.862 121.903 649.105 121.261 650.267 120.66C652.151 119.698 653.914 118.776 655.277 117.414C658.724 113.887 658.643 108.276 658.323 102.825C658.323 102.344 658.603 101.863 659.084 101.743C665.938 99.4986 673.032 97.1339 678.723 92.605C684.254 88.1563 687.34 81.8639 687.019 76.1327C673.312 74.0887 660.126 70.0006 650.588 60.9829C647.942 65.7924 644.856 70.4816 640.207 73.4875H640.087Z" fill="white"/>
<path d="M224.468 195.727C222.705 198.773 220.42 201.499 218.176 204.184C214.689 208.392 211.402 212.36 209.919 217.33C207.234 226.428 211.202 237.009 221.823 248.712C222.905 249.914 223.987 251.076 225.109 252.279C232.444 260.174 240.019 268.35 241.862 278.971C243.425 287.868 240.78 297.768 234.007 308.469C232.484 310.874 229.798 313.158 227.274 311.715C227.073 311.595 226.913 311.435 226.833 311.274C224.268 306.265 219.739 301.094 215.49 303.058C212.605 304.381 211.563 308.269 212.324 314.521C213.366 323.178 214.488 332.115 218.015 340.171C220.42 345.662 223.546 349.229 227.314 350.792C229.678 351.754 232.604 351.714 235.009 350.672C236.331 350.111 238.015 348.948 238.776 346.824C238.896 346.544 239.137 346.303 239.417 346.183C239.698 346.063 240.059 346.103 240.339 346.263C253.565 353.598 263.345 366.824 266.511 381.573C266.872 383.256 267.192 384.779 268.194 385.621C269.196 386.462 270.759 386.462 272.402 386.422C272.883 386.422 273.404 386.422 273.885 386.422C280.779 386.663 285.949 391.953 288.474 396.843C290.558 400.81 291.24 410.069 291.761 417.483C291.761 417.884 291.801 418.245 291.841 418.645L299.696 399.247C303.023 391.031 305.828 383.055 303.664 375.601C303.303 374.398 302.862 373.236 302.341 371.994C301.78 370.551 301.179 369.108 300.778 367.545C298.253 357.525 305.227 347.586 312.562 341.654C316.329 338.608 323.744 333.879 330.677 336.684C333.844 337.967 336.288 340.532 338.653 343.017C341.699 346.223 344.625 349.269 348.432 348.788C351.799 348.387 354.083 345.462 356.488 342.376C357.37 341.213 358.292 340.051 359.294 339.009C363.662 334.36 370.275 332.035 376.207 333.157C382.58 334.36 387.83 339.45 388.952 345.542L389.112 346.343C389.674 349.59 390.275 352.075 392.078 352.115C393.04 352.195 393.842 351.433 394.844 350.632C395.525 350.071 396.206 349.469 397.048 349.069C401.096 347.065 404.463 349.95 407.709 352.796C409.753 354.559 411.877 356.403 414.162 357.004C415.805 357.445 417.528 357.285 419.372 357.044C421.015 356.884 422.659 356.684 424.382 356.924C428.149 357.485 431.035 360.01 433.801 362.455C436.165 364.539 438.41 366.503 441.175 367.305C445.664 368.627 450.113 366.463 454.802 364.218C458.93 362.215 463.178 360.171 467.787 360.411C471.355 360.611 474.641 362.134 477.807 363.657C481.615 365.461 485.222 367.184 488.989 366.423C491.274 365.982 493.238 364.699 495.362 363.337L496.324 362.736C503.939 357.926 512.596 354.96 521.533 353.758C515.121 344.179 507.866 333.358 497.045 327.546C496.324 327.146 495.562 326.785 494.801 326.424C492.997 325.542 491.113 324.621 489.43 323.338C486.985 321.495 485.021 318.97 483.138 316.565C480.412 313.078 477.847 309.792 474 308.629C473.238 308.389 472.397 308.228 471.555 308.108C469.431 307.707 467.226 307.347 465.623 305.623C463.259 303.138 463.82 299.652 464.301 296.566C464.461 295.564 464.621 294.522 464.701 293.56C465.062 287.788 461.215 282.658 457.487 277.729L456.405 276.286C453.159 271.917 443.219 256.807 451.475 245.465C453.559 242.62 456.485 240.576 459.331 238.612C462.697 236.287 465.864 234.123 467.547 230.756C469.351 227.109 469.03 222.62 468.509 218.372C468.108 214.845 466.786 208.793 462.537 208.152C458.89 207.591 456.044 211.238 453.479 215.246C449.792 220.977 445.303 223.422 441.456 221.819C438.971 220.777 437.608 218.332 436.486 216.128C433.72 210.637 431.195 204.946 428.951 199.214C426.466 192.842 424.382 186.028 425.865 179.455C426.907 174.886 429.552 170.999 432.077 167.231L432.237 166.991C436.245 161.059 439.973 155.168 441.696 148.595C443.62 141.341 442.458 134.166 438.65 129.397C438.289 128.916 437.889 128.475 437.448 127.994C435.203 125.389 432.678 122.423 433.841 118.937C434.322 117.454 435.364 116.372 436.766 115.73C439.331 114.568 442.939 115.089 445.864 116.131C445.664 110.68 445.063 105.63 441.896 102.063C440.935 101.021 439.812 100.14 438.61 99.2178C437.488 98.3361 436.326 97.4544 435.324 96.4123C433.841 94.8493 432.678 92.5648 432.638 90.3204C432.518 90.3604 432.478 90.4406 432.358 90.4807C428.23 92.164 424.342 90.0398 420.935 88.116C420.174 87.6752 419.412 87.2744 418.651 86.9137C413.761 84.5089 407.589 85.03 402.178 88.3565C397.329 91.3223 394.162 95.8111 393.441 100.661L408.03 104.749C408.631 104.909 409.112 105.35 409.392 105.911C411.597 110.44 407.388 113.125 404.302 115.089C402.138 116.492 399.894 117.935 399.573 119.618C399.293 121.061 400.495 122.383 402.459 124.347C403.821 125.71 405.224 127.153 406.106 128.956C407.429 131.601 407.268 134.728 405.745 137.613C403.942 140.98 400.575 143.345 397.008 143.785C391.357 144.467 385.265 141.22 381.457 135.449C380.896 134.607 380.375 133.726 379.814 132.804C378.051 129.838 376.407 127.073 373.802 126.431C371.999 125.99 369.875 126.632 367.67 127.393L365.666 128.115C354.725 132.002 343.422 136.01 332.16 132.684C325.026 130.559 318.854 123.786 317.171 116.171C316.169 111.682 316.93 107.474 319.255 104.188C315.407 102.785 310.798 103.186 307.311 105.35C311.92 118.696 309.876 133.966 301.82 145.589C298.694 150.118 294.606 154.366 290.678 158.454C281.981 167.512 273.765 176.089 275.769 186.91C276.09 188.674 276.691 190.397 277.332 192.201C278.294 194.926 279.296 197.731 279.376 200.817C279.456 204.384 277.492 208.272 274.607 210.236C272.443 211.719 270.038 211.999 267.793 211.078C265.068 209.955 263.505 207.27 262.503 205.507L245.309 175.568C244.788 174.646 244.988 173.484 245.79 172.802C246.592 172.121 247.754 172.121 248.596 172.802C248.916 173.043 248.996 173.003 249.036 173.003C249.517 172.802 250.359 171.64 250.559 170.077C250.64 169.476 250.72 167.953 249.678 167.191C247.193 165.348 243.666 165.588 239.979 165.789C238.496 165.869 237.053 165.989 235.61 165.949C233.726 165.949 231.883 165.628 230.079 165.147C230.199 175.007 229.758 186.429 224.268 195.768L224.468 195.727Z" fill="white"/>
<path d="M1106.77 1123.99C1108.33 1122.03 1110.29 1120.22 1112.14 1118.42C1116.59 1114.21 1120.79 1110.24 1120.07 1104.95C1119.63 1101.79 1117.03 1099.02 1113.94 1098.34C1110.85 1097.7 1107.33 1099.1 1105.6 1101.83C1105.44 1102.11 1105.16 1102.27 1104.84 1102.31C1104.52 1102.35 1104.2 1102.27 1103.96 1102.07C1101.4 1099.82 1101.2 1096.02 1101 1092.69C1100.8 1088.64 1100.51 1086.12 1098.11 1085.48C1097.19 1085.24 1096.11 1085.44 1094.94 1085.64C1094.46 1085.72 1093.98 1085.84 1093.46 1085.88C1087.13 1086.68 1081.56 1082.15 1078.87 1077.26C1076.23 1072.49 1075.51 1066.92 1074.98 1061.91C1072.22 1062.35 1068.93 1062.23 1066.85 1060.75C1065.69 1059.95 1065 1058.82 1064.8 1057.42C1064.48 1055.14 1065.85 1053.33 1067.01 1051.69C1067.57 1050.93 1068.05 1050.25 1068.45 1049.48C1071.74 1042.95 1062.96 1036.14 1059.07 1033.49C1051.94 1028.72 1045.69 1021.23 1049.49 1014.54C1052.5 1009.25 1059.55 1009.01 1065.2 1008.8H1065.49C1069.73 1008.64 1077.03 1007 1077.31 1001.79C1077.43 999.907 1076.51 998.104 1075.51 996.22C1074.82 994.938 1074.14 993.575 1073.74 992.132C1073.1 989.768 1073.3 987.122 1074.26 984.557C1071.22 977.584 1060.24 978.505 1055.67 979.267C1050.22 980.149 1038.91 981.992 1033.9 974.778C1031.18 970.89 1031.46 966.001 1031.74 961.272C1032.02 956.382 1032.26 951.773 1029.29 948.687C1027.09 946.362 1023.76 945.681 1020.24 944.959C1019.19 944.759 1018.19 944.559 1017.19 944.278C1011.9 942.956 1007.01 938.988 1007.89 933.978C1008.05 933.096 1008.37 932.295 1008.69 931.533C1008.85 931.172 1008.97 930.812 1009.09 930.451C1010.38 926.764 1009.09 922.315 1006.13 919.83C1003.12 917.345 998.514 916.984 995.147 918.948C993.864 919.71 992.662 920.792 991.5 921.834C989.335 923.838 987.091 925.882 983.965 926.122C982.282 926.243 980.678 925.802 979.155 925.321C977.793 924.92 976.43 924.559 975.188 924.599C971.1 924.84 968.735 929.529 966.611 933.617L966.25 934.339C964.807 937.184 961.801 940.871 958.114 941.833C956.31 942.314 954.547 942.034 953.064 941.072C952.503 940.711 951.982 940.27 951.501 939.789C950.459 938.868 949.778 938.306 949.056 938.387C948.535 938.427 948.014 938.868 947.413 939.348C946.812 939.829 946.17 940.35 945.329 940.631C942.483 941.633 940.519 939.348 938.756 937.385C937.834 936.343 936.872 935.22 935.87 934.659C933.706 933.417 931.181 934.339 928.295 935.381C925.73 936.343 923.045 937.304 920.319 936.783C916.833 936.102 914.668 933.297 912.624 930.611C911.943 929.73 911.302 928.848 910.58 928.086C908.456 925.762 905.61 923.998 902.564 923.117C900.52 922.555 898.917 922.596 897.715 923.277C895.751 924.399 895.31 927.044 894.829 929.81C894.308 932.896 893.787 936.062 891.142 937.825C887.294 940.35 883.607 937.745 880.04 935.26C877.515 933.497 874.87 931.653 872.225 931.613H872.104C871.263 931.613 870.501 931.854 869.74 932.214C869.74 932.214 869.7 932.295 869.66 932.295C869.579 932.295 869.539 932.295 869.459 932.295C866.533 933.858 864.61 937.866 864.369 941.673C864.249 943.677 864.369 945.801 864.53 947.845C864.77 951.051 865.01 954.378 864.209 957.624C863.367 961.111 860.642 964.318 857.436 965.64C855.792 966.321 854.109 966.442 852.586 966.001V967.283C854.911 970.45 855.111 974.898 855.271 978.946C855.391 981.631 855.512 984.437 856.233 986.722C858.037 992.453 863.768 995.459 869.86 998.665C875.191 1001.47 880.681 1004.36 884.168 1009.37C889.98 1017.7 887.815 1028.96 883.086 1036.42C878.397 1043.79 871.143 1049.12 864.53 1053.77C864.97 1054.98 865.932 1055.9 867.415 1056.5C870.942 1057.9 876.112 1056.94 878.958 1054.41C881.523 1052.13 883.447 1049.24 885.491 1046.16C887.735 1042.75 890.1 1039.22 893.386 1036.5C900.641 1030.57 912.063 1029.49 922.564 1033.77C931.822 1037.54 939.437 1044.56 946.13 1050.73C946.691 1051.25 946.972 1052.05 946.772 1052.81C946.571 1053.57 946.01 1054.17 945.249 1054.41C928.335 1059.22 913.145 1069.92 902.845 1084.11C924.888 1078.5 946.17 1070.29 966.29 1059.66C971.34 1056.98 978.274 1053.33 984.967 1055.54C990.939 1057.5 994.425 1063.47 996.75 1067.44L1010.94 1091.73C1012.46 1094.29 1017.03 1102.11 1012.78 1107.8C1011.38 1109.68 1009.37 1110.77 1007.57 1111.69C1006.37 1112.33 1005.21 1112.93 1004.37 1113.73C1002.8 1115.21 1002.24 1117.18 1002.76 1119.54C1003.68 1123.83 1007.73 1128.16 1012.14 1129.6C1015.55 1130.72 1019.15 1131.13 1022.96 1131.53C1027.85 1132.05 1032.9 1132.57 1037.55 1134.81C1042.96 1137.42 1046.85 1143.95 1046.61 1150.08C1046.49 1153.25 1045.25 1155.81 1043.08 1157.5C1046.33 1161.38 1051.66 1163.79 1057.55 1163.83H1057.71C1064.4 1163.83 1070.42 1160.82 1073.42 1155.93C1074.38 1154.41 1075.18 1152.65 1076.03 1150.8C1078.35 1145.87 1080.96 1140.26 1086.85 1138.9C1087.69 1138.7 1088.49 1138.62 1089.29 1138.62C1091.9 1138.62 1094.3 1139.62 1096.39 1141.23C1098.43 1138.82 1099.95 1135.85 1101.52 1132.73C1103 1129.72 1104.52 1126.6 1106.65 1123.95L1106.77 1123.99Z" fill="white"/>
<path d="M1202.75 1130.72C1198.23 1134.25 1196.06 1140.14 1194.66 1144.91C1194.38 1145.91 1194.1 1146.96 1193.78 1148C1192.53 1152.57 1191.25 1157.3 1188.65 1161.38C1186.56 1164.63 1184 1166.72 1181.19 1167.44C1177.87 1168.24 1173.66 1166.72 1172.54 1163.19C1172.42 1162.75 1172.29 1162.27 1172.21 1161.79C1172.01 1160.7 1171.85 1160.06 1171.41 1159.74C1170.85 1159.38 1169.85 1159.7 1168.45 1160.7L1157.51 1168.52C1157.23 1168.72 1156.9 1168.76 1156.58 1168.68C1156.26 1168.6 1156.02 1168.36 1155.86 1168.04C1152.26 1159.3 1143.48 1152.97 1134.02 1152.33C1132.14 1152.21 1130.81 1152.33 1129.69 1152.81C1127.57 1153.73 1126.12 1155.93 1124.84 1158.1C1122.68 1161.75 1120.71 1165.55 1118.79 1169.36C1118.99 1169.88 1119.03 1170.44 1118.79 1171C1111.82 1187.76 1121.27 1206.31 1127.57 1215.89C1130.77 1220.78 1134.38 1225.55 1137.91 1230.16C1144.36 1238.66 1151.05 1247.43 1155.42 1257.41C1158.83 1265.15 1160.79 1273.4 1162.68 1281.42C1164.56 1289.32 1166.48 1297.49 1169.81 1304.91C1171.21 1308.03 1172.86 1311.12 1174.5 1314.08C1176.94 1318.61 1179.51 1323.3 1181.19 1328.31C1184.72 1338.69 1183.48 1348.63 1177.95 1355C1173.3 1360.34 1166.56 1362.34 1160.07 1364.3C1158.35 1364.82 1156.62 1365.35 1154.94 1365.91C1147.61 1368.43 1140.55 1374 1141.31 1380.74C1141.59 1383.14 1142.88 1385.42 1144.2 1387.83C1144.6 1388.55 1145 1389.31 1145.4 1390.03C1154.1 1406.79 1148.73 1429.35 1133.42 1440.37C1132.74 1440.85 1132.02 1441.33 1131.29 1441.82C1128.97 1443.38 1126.73 1444.86 1125.4 1446.99C1123.36 1450.15 1123.48 1454.36 1123.8 1459.13L1125.96 1489.19C1126.12 1491.43 1126.4 1493.92 1127.81 1495.04C1129.05 1496.04 1131.17 1495.92 1133.38 1495.76L1163.12 1493.16C1169.89 1492.56 1176.58 1491.35 1179.35 1486.58C1180.99 1483.74 1180.95 1480.13 1180.91 1476.32C1180.91 1475.16 1180.91 1474 1180.91 1472.88C1181.31 1457.97 1189.93 1443.5 1207.24 1428.67L1209.89 1426.43C1217.86 1419.69 1226.12 1412.72 1228.65 1403.14C1230.41 1396.45 1229.13 1389.51 1227.76 1382.18C1227 1377.97 1226.2 1373.6 1226 1369.19C1225 1346.19 1243.44 1324.06 1266.24 1320.9C1269.81 1320.42 1273.41 1320.3 1276.94 1320.26C1282.43 1320.14 1287.6 1320.02 1292.49 1318.41C1297.14 1316.89 1301.43 1313.08 1303.19 1308.83C1303.99 1306.95 1304.64 1304.06 1303.15 1301.14C1302.11 1299.1 1300.31 1297.49 1298.42 1295.77C1297.22 1294.73 1296.06 1293.64 1295.02 1292.48C1291.57 1288.59 1290.13 1282.62 1293.37 1278.86C1294.3 1269.8 1292.53 1259.7 1290.69 1250.96C1288.6 1241.22 1283.11 1233.25 1275.98 1229.6C1274.38 1228.8 1272.69 1228.16 1270.89 1227.47C1267.96 1226.39 1264.96 1225.27 1262.31 1223.27C1259.83 1221.38 1257.94 1218.98 1256.1 1216.65C1254.02 1213.97 1252.01 1211.4 1249.33 1210C1245.92 1208.2 1241.79 1208.32 1237.46 1208.52C1235.02 1208.6 1232.45 1208.72 1229.93 1208.44C1222.75 1207.68 1216.1 1203.51 1211.65 1196.93C1207.2 1190.36 1205.72 1182.63 1207.64 1175.69C1208.37 1173.05 1209.49 1170.6 1210.57 1168.24C1211.29 1166.67 1212.01 1165.11 1212.61 1163.47C1215.06 1156.82 1215.26 1149.72 1215.46 1142.23C1215.58 1138.3 1215.7 1134.33 1216.14 1130.32C1212.61 1127.04 1206.48 1127.72 1202.71 1130.64L1202.75 1130.72Z" fill="white"/>
<path d="M435.003 71.4035C436.766 76.9744 438.971 84.1886 435.364 88.2766C434.161 90.2004 435.243 93.046 436.967 94.8495C437.849 95.8114 438.891 96.613 440.013 97.4547C441.255 98.4165 442.498 99.3784 443.58 100.581C447.548 105.03 448.029 111.202 448.149 117.694C448.149 118.055 447.989 118.416 447.668 118.616C447.347 118.817 446.987 118.857 446.626 118.696C443.82 117.454 439.973 116.692 437.688 117.694C436.806 118.095 436.245 118.696 435.925 119.618C435.163 121.943 437.167 124.307 439.131 126.552C439.572 127.033 439.973 127.554 440.374 128.035C444.622 133.325 445.904 141.221 443.82 149.116C442.017 156.01 438.169 162.062 434.041 168.194L433.881 168.434C431.436 172.041 428.951 175.768 427.989 179.937C426.626 185.948 428.63 192.401 430.955 198.453C433.159 204.104 435.684 209.755 438.41 215.166C439.372 217.13 440.494 219.094 442.297 219.855C445.584 221.218 449.311 217.811 451.676 214.124C453.519 211.238 457.407 205.186 462.898 206.068C465.423 206.469 467.387 208.112 468.749 210.918C469.511 210.116 470.513 209.555 471.795 209.435C474.521 209.114 477.567 210.677 478.849 212.962C480.372 215.647 480.412 218.693 480.412 221.659C480.412 222.701 480.412 223.743 480.533 224.745C480.813 228.272 482.737 232.079 485.823 232.159C488.909 232.28 491.154 228.592 492.516 225.827C492.677 225.466 493.077 225.226 493.478 225.226C493.919 225.226 494.24 225.426 494.44 225.787C497.085 230.436 502.656 233.161 507.947 232.44C513.237 231.678 517.846 227.55 519.129 222.34C519.85 219.454 519.65 216.128 519.489 212.881C519.209 207.19 518.928 201.339 523.417 197.651C525.421 196.008 527.866 195.367 530.231 194.726C531.072 194.485 531.914 194.285 532.715 194.004C535.24 193.163 538.246 191.239 538.286 188.554C538.286 187.872 538.126 187.151 537.926 186.389C537.806 185.828 537.645 185.307 537.605 184.746C537.204 181.74 538.727 178.654 541.613 176.69C544.499 174.726 547.946 174.446 550.591 175.969C552.835 177.251 554.318 179.376 555.761 181.46C557.444 183.824 559.007 186.069 561.452 186.63C563.095 186.991 564.538 186.389 565.42 185.788C567.304 184.586 568.827 182.261 569.348 179.897C569.949 177.051 569.588 174.125 569.227 170.999C569.067 169.677 568.907 168.314 568.827 166.991C568.747 165.829 568.746 164.627 569.308 163.544C570.831 160.458 574.798 160.619 577.724 160.699C585.139 161.02 592.072 157.693 595.639 152.282C599.527 146.391 598.886 138.255 594.237 133.726C592.834 132.363 591.191 131.361 589.427 130.279C587.664 129.197 585.82 128.075 584.257 126.592C580.69 123.145 579.367 117.574 580.85 112.043C582.053 107.514 584.938 103.867 588.586 102.064C585.58 100.26 583.536 97.4947 583.055 94.4888C582.694 92.2043 583.375 89.7195 584.938 87.8357C586.261 86.2326 588.065 85.3108 589.948 85.2707H590.068C591.952 85.2707 593.676 86.0322 595.359 86.7937C597.323 87.6754 599.046 88.477 600.689 87.8357C602.012 87.3147 603.014 85.952 603.816 83.4672C604.176 82.385 604.457 81.2628 604.777 80.1807C605.539 77.3351 606.381 74.3693 608.064 71.7642C610.629 67.9166 616.04 65.4718 619.967 67.9166C621.009 68.5579 621.771 69.3995 622.532 70.2412C622.893 70.642 623.294 71.0428 623.695 71.4435C627.823 75.2911 634.596 74.4094 638.885 71.6039C643.293 68.7583 646.299 64.0691 648.824 59.3398C647.582 58.0172 646.379 56.6946 645.297 55.1716C642.973 52.0054 640.849 48.3181 638.805 44.711C633.113 34.7715 627.663 25.4332 618.244 26.1145C617.042 26.2347 616.08 25.353 615.919 24.2308C615.519 21.0245 616.801 17.5777 619.366 15.0928C621.41 13.0889 624.096 11.9266 626.701 11.8064C627.061 10.3235 627.222 8.39969 627.382 6.51599C627.542 4.47198 627.743 2.42796 628.144 0.58434C619.927 -2.02078 610.549 4.67237 605.499 9.08103L603.615 10.7643C596.601 16.9765 588.786 24.0304 578.766 23.83C574.197 23.7498 570.029 22.1467 565.981 20.5435C564.538 19.9824 563.135 19.4213 561.652 18.9404C544.899 13.3294 524.499 19.1408 513.157 32.6874C511.233 35.012 509.349 37.577 507.386 40.2623C500.051 50.3221 491.755 61.7044 479.17 59.2596C474.12 58.2576 470.232 55.1315 466.465 52.1256C463.9 50.0415 461.455 48.1177 458.69 46.8352C451.996 43.7091 444.822 46.6348 440.374 50.4022C435.925 54.1696 431.877 60.7425 433.881 67.8765C434.201 68.9587 434.562 70.1209 434.923 71.2832L435.003 71.4035Z" fill="white"/>
<path d="M1226.6 1045C1226.32 1041.71 1226.76 1038.38 1227.2 1035.18C1227.84 1030.41 1228.45 1025.92 1226.76 1021.79C1226.52 1021.19 1226.28 1020.83 1226.04 1020.75C1225.56 1020.59 1224.72 1021.27 1224.44 1021.47L1216.86 1027.36C1216.58 1027.6 1216.22 1027.64 1215.86 1027.52C1215.5 1027.4 1215.26 1027.12 1215.14 1026.8C1213.74 1021.95 1211.85 1019.51 1209.41 1019.35C1209.33 1019.35 1209.25 1019.35 1209.17 1019.35C1206.48 1019.35 1204.4 1022.27 1202.68 1025C1199.79 1029.53 1196.5 1031.57 1193.3 1030.65C1190.17 1029.77 1189.13 1026.84 1188.09 1023.99C1187.41 1022.15 1186.72 1020.23 1185.44 1019.03C1183.16 1016.82 1179.39 1017.26 1175.78 1017.7L1174.42 1017.86C1167.85 1018.54 1163.48 1017.06 1162.56 1013.77C1161.59 1013.49 1160.83 1012.93 1160.23 1012.05C1158.67 1009.73 1158.95 1005.96 1159.71 1003.47C1160.39 1001.19 1160.63 998.144 1159.63 996.581C1159.27 996.02 1158.79 995.699 1158.15 995.579C1156.54 995.299 1155.1 996.862 1153.58 998.505C1153.18 998.946 1152.78 999.387 1152.34 999.827C1149.41 1002.75 1144.72 1003.8 1140.19 1002.51C1135.62 1001.27 1132.18 997.984 1131.13 993.936C1130.25 990.489 1130.89 987.002 1131.5 983.596C1132.14 980.069 1132.7 976.782 1131.7 973.656C1130.65 970.45 1128.17 968.646 1126.28 967.684C1122.92 966.001 1118.63 965.72 1115.1 966.963C1108.09 969.408 1103.48 976.221 1100.87 981.471C1100.71 981.832 1100.35 982.032 1099.99 982.073C1099.63 982.153 1099.23 981.952 1099.03 981.632L1093.58 973.977C1093.34 973.656 1092.94 973.095 1092.62 973.015C1092.38 973.015 1091.9 973.175 1091.58 973.295C1087.41 975.099 1083.12 976.942 1079.87 980.069C1076.43 983.395 1074.86 987.924 1075.87 991.611C1076.19 992.854 1076.83 994.016 1077.47 995.258C1078.55 997.343 1079.63 999.467 1079.51 1001.95C1079.19 1007.88 1072.3 1010.81 1065.61 1011.01H1065.32C1059.95 1011.21 1053.86 1011.41 1051.42 1015.66C1047.45 1022.59 1058.15 1030.25 1060.31 1031.73C1064.72 1034.7 1074.46 1042.43 1070.45 1050.49C1070.01 1051.37 1069.41 1052.17 1068.85 1052.97C1067.77 1054.45 1066.85 1055.74 1067.05 1057.14C1067.17 1057.9 1067.53 1058.5 1068.17 1058.94C1069.89 1060.15 1073.22 1060.11 1075.79 1059.54C1076.11 1059.46 1076.39 1059.54 1076.67 1059.71C1076.91 1059.91 1077.07 1060.19 1077.11 1060.47C1077.63 1065.6 1078.27 1071.41 1080.88 1076.18C1083.12 1080.27 1088.01 1084.35 1093.3 1083.67C1093.74 1083.63 1094.18 1083.51 1094.62 1083.43C1095.94 1083.15 1097.35 1082.91 1098.75 1083.27C1102.8 1084.35 1103.04 1088.68 1103.24 1092.49C1103.36 1095.05 1103.52 1097.7 1104.68 1099.46C1107.05 1096.78 1110.93 1095.38 1114.46 1096.18C1118.43 1097.06 1121.76 1100.59 1122.32 1104.63C1123.2 1111.01 1118.39 1115.57 1113.74 1119.94C1111.94 1121.67 1110.01 1123.43 1108.57 1125.27C1106.61 1127.72 1105.12 1130.72 1103.68 1133.65C1102.12 1136.78 1100.47 1139.94 1098.27 1142.59C1100.75 1144.95 1102.68 1148.08 1104 1151.08C1106.65 1157.22 1112.38 1165.11 1117.23 1167.8C1119.07 1164.11 1121.03 1160.46 1123.08 1156.94C1124.52 1154.45 1126.2 1151.93 1128.93 1150.72C1130.77 1149.92 1132.74 1149.96 1134.22 1150.04C1144.04 1150.68 1153.18 1156.98 1157.39 1165.83L1167.25 1158.78C1168.05 1158.18 1170.53 1156.46 1172.62 1157.78C1173.9 1158.62 1174.18 1160.06 1174.38 1161.26C1174.46 1161.67 1174.54 1162.07 1174.62 1162.43C1175.34 1164.79 1178.39 1165.79 1180.67 1165.23C1183.52 1164.51 1185.56 1162.07 1186.8 1160.14C1189.25 1156.33 1190.49 1151.77 1191.69 1147.36C1191.97 1146.32 1192.25 1145.27 1192.58 1144.23C1194.06 1139.14 1196.38 1132.81 1201.39 1128.92C1205.6 1125.67 1212.05 1124.79 1216.5 1127.8C1216.7 1126.64 1216.86 1125.43 1217.14 1124.27C1219.83 1112.73 1226.88 1102.71 1233.14 1093.85C1238.19 1086.68 1243.4 1079.34 1249.65 1072.93C1238.19 1065.6 1227.64 1057.06 1226.56 1044.92L1226.6 1045Z" fill="white"/>
<path d="M856.634 963.716C859.199 962.674 861.443 959.989 862.125 957.184C862.846 954.258 862.605 951.252 862.405 948.086C862.245 946.002 862.084 943.797 862.245 941.633C862.525 937.264 864.609 932.816 867.976 930.732C866.814 926.764 868.056 922.716 869.299 918.788C870.14 916.143 871.022 913.378 871.062 910.732C871.062 909.209 870.862 907.646 870.621 906.043C870.421 904.68 870.18 903.278 870.14 901.835C870.06 899.35 870.741 896.344 872.625 894.38C871.222 893.418 870.1 891.535 869.219 888.609C868.096 884.922 866.934 881.835 864.329 881.314C861.884 880.834 859.92 882.998 857.796 885.242C855.552 887.647 852.946 890.292 849.5 890.012C845.412 889.611 843.528 885.523 841.885 881.876C840.001 877.747 838.638 875.223 835.993 875.503C833.789 875.663 832.266 877.868 830.622 880.232C828.739 882.918 826.655 886.004 823.007 885.443C818.839 884.801 817.677 879.912 817.196 876.305C816.875 873.82 815.633 869.732 812.747 869.812C811.425 869.892 810.342 870.974 809.18 872.096C807.978 873.299 806.615 874.621 804.731 874.982C803.289 875.263 801.886 874.902 800.643 873.98C798.88 872.698 797.557 870.333 797.277 867.928C797.076 866.325 797.197 864.762 797.277 863.239C797.397 861.516 797.477 859.832 797.156 858.269C795.714 850.694 786.375 847.729 777.478 845.845C772.829 844.883 757.719 840.795 758.24 829.533C758.601 822.198 766.135 817.389 773.39 816.427C776.636 815.986 780.003 816.106 783.209 816.187C786.055 816.267 789.02 816.347 791.866 816.066L771.666 787.089C769.783 784.364 767.418 780.997 767.057 777.15C766.656 773.182 769.021 768.573 773.189 767.972C773.71 767.892 774.271 767.892 774.832 767.892C775.875 767.892 776.796 767.892 777.317 767.331C777.598 767.05 777.678 766.769 777.598 766.369C777.398 765.287 775.995 763.924 774.512 763.243C770.223 761.359 768.46 759.114 769.221 756.589C769.903 754.385 772.468 753.584 773.269 753.303C775.233 752.662 777.277 752.261 779.241 751.86C781.967 751.299 784.532 750.818 786.976 749.776C790.944 748.093 794.551 744.205 793.91 740.077C793.75 739.195 793.469 738.193 793.149 737.151C792.748 735.869 792.347 734.426 792.267 733.103C791.626 729.416 787.217 726.851 783.409 726.049C780.083 725.328 775.834 725.569 773.911 728.414C773.39 729.176 772.989 730.017 772.548 730.899C771.947 732.141 771.346 733.424 770.384 734.506C768.62 736.55 766.095 737.552 763.891 738.394L742.849 746.65C741.126 747.331 739.162 748.093 737.84 749.415C736.958 750.297 736.317 751.459 735.635 752.702C734.874 754.064 734.112 755.467 732.91 756.589C730.665 758.714 727.7 759.315 724.814 759.876C724.052 760.036 723.251 760.197 722.489 760.357C719.403 761.118 716.117 763.243 716.277 766.048C716.277 766.489 716.397 766.93 716.478 767.331C716.638 768.052 716.798 768.894 716.718 769.815C716.317 772.942 713.311 773.863 710.666 774.665C709.143 775.146 707.58 775.587 706.498 776.469C705.175 777.511 704.574 779.274 703.973 781.158C703.412 782.841 702.851 784.605 701.648 786.047C700.165 787.851 698.041 788.773 695.556 788.773C691.629 788.773 686.979 786.368 684.014 782.801C682.891 781.478 681.889 780.036 680.887 778.633C678.202 774.865 675.677 771.298 671.749 769.856C671.308 769.695 670.828 769.535 670.347 769.415C669.345 769.094 668.262 768.813 667.301 768.212C664.856 766.689 663.734 763.924 662.812 761.679C661.008 757.271 659.165 753.103 655.918 750.097C653.113 747.452 648.223 745.528 644.215 747.532C643.734 747.772 643.293 748.053 642.812 748.333C641.73 749.015 640.568 749.736 639.165 749.896C636.199 750.297 633.394 748.293 630.869 743.965C625.859 735.268 621.971 725.969 619.326 716.35C618.805 714.467 618.284 712.503 616.921 711.461C613.996 709.136 609.306 712.182 606.781 714.226C604.737 715.869 602.773 717.633 602.613 719.877C602.493 722.001 604.096 723.845 605.779 725.809C607.663 727.973 609.627 730.218 609.507 733.224C609.386 736.43 606.982 738.474 604.697 740.438C603.535 741.44 602.333 742.442 601.491 743.564C599.968 745.648 599.527 748.333 599.046 751.139C598.886 752.101 598.725 753.063 598.525 754.024C597.643 758.112 595.118 762.601 590.67 763.002C589.427 763.122 588.305 762.882 587.223 762.641C586.301 762.441 585.419 762.241 584.618 762.321C582.534 762.401 581.211 764.245 580.69 765.808C580.169 767.371 580.169 769.615 581.812 770.938C582.253 771.298 582.774 771.579 583.255 771.859C584.016 772.3 584.778 772.741 585.459 773.382C586.822 774.705 587.383 776.589 586.982 778.673C586.501 781.318 584.578 783.843 582.173 784.885C579.688 786.007 576.922 786.047 574.357 785.687C575.72 786.929 577.003 788.252 578.165 789.694C582.854 795.466 586.06 802.44 589.187 809.173C593.996 819.593 598.525 829.413 607.863 834.262C610.348 835.545 613.034 836.386 615.879 837.308C617.763 837.909 619.647 838.51 621.45 839.232C635.358 844.723 645.658 857.908 647.702 872.738C647.822 873.619 647.902 874.541 648.023 875.423C648.303 878.228 648.584 880.914 649.746 883.158C652.431 888.489 658.804 890.092 665.537 891.735C670.186 892.857 674.956 894.06 679.004 896.544C686.819 901.354 690.426 909.971 693.953 918.347C697.48 926.844 700.847 934.82 708.141 938.427C711.828 940.23 716.037 940.631 720.485 941.032C724.854 941.433 729.343 941.873 733.551 943.677C740.164 946.563 745.054 952.414 749.783 958.065C755.835 965.32 761.005 971.572 768.74 970.971C778.4 963.396 787.698 963.476 800.323 966.121C811.625 968.526 821.805 973.856 831.664 979.267C833.228 973.215 836.714 966.842 841.364 964.478C844.049 963.115 846.895 963.155 849.62 964.598C850.021 964.798 850.341 965.079 850.702 965.32V964.358C850.702 963.957 850.942 963.636 851.303 963.436C851.664 963.235 852.065 963.275 852.385 963.436C854.029 964.438 855.752 964.117 856.874 963.636L856.634 963.716Z" fill="white"/>
<path d="M1438.78 1078.34C1415.94 1057.54 1392.29 1036.02 1364.03 1022.31C1356.94 1018.86 1349.45 1015.86 1342.19 1012.97C1334.9 1010.09 1327.36 1007.08 1320.19 1003.55C1310.01 998.625 1300.27 992.613 1290.85 986.802C1288.04 985.078 1285.24 983.355 1282.39 981.632C1241.11 956.703 1193.58 935.26 1137.07 916.183C1126.25 912.536 1114.9 907.326 1112.74 896.504C1110.65 885.964 1118.39 878.268 1125.88 870.854C1131.94 864.882 1138.15 858.67 1138.99 851.175C1140.07 841.316 1130.81 832.619 1121.56 830.254C1111.22 827.569 1100.03 830.174 1090.17 832.458C1068.49 837.468 1040 844.001 1014.43 837.388C1013.26 837.789 1012.14 838.55 1011.34 839.753C1010.14 841.476 1009.58 843.681 1009.05 846.005C1008.17 849.973 1007.41 853.941 1006.81 857.828C1006.13 862.157 1005.81 866.966 1008.69 869.852C1009.54 870.694 1010.66 871.335 1011.82 872.016C1013.62 873.058 1015.47 874.14 1016.51 876.104C1017.43 877.828 1017.51 879.791 1016.67 881.755C1015.51 884.521 1012.62 887.006 1009.54 887.927C1007.13 888.609 1004.65 888.769 1002.28 888.889C1000.04 889.01 997.873 889.13 995.829 889.651C993.263 890.332 990.859 892.256 989.857 894.42C989.215 895.743 989.175 897.025 989.737 898.228C990.378 899.63 991.74 900.632 993.143 901.674C993.664 902.035 994.185 902.436 994.666 902.837C998.474 905.923 1000.8 910.692 1000.88 915.582C1000.88 915.622 1000.84 915.662 1000.84 915.742C1003.28 915.902 1005.69 916.784 1007.57 918.307C1011.26 921.353 1012.78 926.804 1011.22 931.293C1011.1 931.693 1010.9 932.094 1010.74 932.495C1010.46 933.176 1010.18 933.858 1010.06 934.499C1009.42 938.146 1013.54 941.272 1017.75 942.314C1018.71 942.555 1019.72 942.755 1020.72 942.956C1024.4 943.717 1028.21 944.479 1030.9 947.284C1034.5 951.051 1034.22 956.382 1033.94 961.472C1033.7 966.041 1033.46 970.329 1035.75 973.616C1039.47 978.946 1047.37 978.505 1055.39 977.223C1061.28 976.261 1071.26 975.86 1075.43 982.353C1076.23 980.99 1077.19 979.708 1078.39 978.545C1081.92 975.139 1086.61 973.135 1090.74 971.331C1091.3 971.091 1092.1 970.73 1093.06 970.93C1094.22 971.171 1094.94 972.173 1095.38 972.734L1099.79 978.946C1103.68 971.772 1108.73 966.923 1114.42 964.959C1118.55 963.516 1123.36 963.837 1127.29 965.8C1130.49 967.404 1132.82 969.969 1133.82 973.055C1134.98 976.662 1134.34 980.429 1133.7 984.036C1133.1 987.363 1132.54 990.489 1133.3 993.455C1134.14 996.741 1137.03 999.386 1140.83 1000.47C1144.64 1001.55 1148.49 1000.71 1150.89 998.304C1151.29 997.903 1151.66 997.503 1152.06 997.062C1153.78 995.138 1155.74 992.934 1158.59 993.455C1159.83 993.695 1160.87 994.377 1161.56 995.459C1163 997.743 1162.64 1001.43 1161.88 1004.12C1161.23 1006.32 1161.11 1009.37 1162.12 1010.89C1162.48 1011.45 1163 1011.73 1163.64 1011.81C1164.16 1011.85 1164.56 1012.25 1164.6 1012.77C1165.04 1016.58 1172.7 1015.94 1174.22 1015.78L1175.58 1015.62C1179.51 1015.14 1183.96 1014.62 1187.01 1017.5C1188.61 1019.03 1189.41 1021.19 1190.17 1023.27C1191.09 1025.8 1191.89 1028 1193.94 1028.56C1196.86 1029.37 1199.55 1025.96 1200.87 1023.83C1202.4 1021.43 1205.16 1017.02 1209.57 1017.18C1213.82 1017.42 1215.86 1021.91 1216.82 1024.68L1223.16 1019.75C1223.8 1019.27 1225.24 1018.14 1226.84 1018.7C1227.97 1019.11 1228.53 1020.19 1228.85 1020.95C1230.73 1025.6 1230.05 1030.61 1229.41 1035.42C1229.01 1038.5 1228.57 1041.71 1228.85 1044.76C1229.93 1056.7 1240.95 1064.79 1251.41 1071.45C1252.86 1070.05 1254.3 1068.6 1255.86 1067.32C1266.24 1058.82 1278.39 1054.74 1289.25 1056.06C1289.53 1056.06 1289.81 1056.18 1290.05 1056.34C1291.37 1057.1 1292.21 1058.38 1292.49 1059.95C1292.81 1062.03 1292.05 1064.47 1290.53 1066.12C1289.65 1067.08 1288.61 1067.84 1287.64 1068.56C1286.64 1069.28 1285.72 1069.97 1285.08 1070.81C1283.84 1072.41 1284.4 1074.65 1285.2 1076.06C1286.04 1077.46 1287.68 1078.98 1289.73 1078.7C1306.8 1076.02 1323.51 1080.23 1339.71 1084.27C1348.92 1086.6 1358.42 1088.96 1367.92 1090.08C1371.05 1090.45 1374.57 1090.85 1377.7 1092.69C1385.08 1097.02 1385.92 1106.08 1386.68 1114.09C1386.8 1115.53 1386.96 1116.94 1387.12 1118.3C1389.8 1139.98 1409.76 1158.46 1431.61 1159.54C1433.57 1159.62 1435.86 1159.58 1437.58 1158.62C1441.07 1156.58 1441.03 1152.33 1440.54 1145.59C1440.38 1143.07 1440.18 1140.5 1440.38 1138.06C1440.91 1131.45 1444.47 1125.92 1447.96 1120.58C1451.21 1115.57 1454.29 1110.85 1454.85 1105.47C1455.9 1095.42 1447.8 1086.52 1438.9 1078.42L1438.78 1078.34Z" fill="white"/>
<path d="M75.173 266.586C76.656 265.464 78.0988 264.222 79.5416 262.979C83.0686 259.933 86.7559 256.767 91.2848 255.084C97.0962 252.96 103.268 253.681 109.28 254.402C111.565 254.683 113.929 254.923 116.254 255.044C124.47 255.364 133.528 252.038 134.931 244.864C135.813 240.375 133.528 236.207 131.123 231.798C129.199 228.271 127.196 224.624 126.755 220.616C126.394 217.37 127.035 214.043 127.676 210.797C128.398 207.069 129.079 203.462 128.117 200.416C127.797 200.416 127.476 200.416 127.155 200.336C126.514 200.136 126.033 199.615 125.793 198.974C124.15 194.084 119.821 190.076 114.25 188.192C108.679 186.309 102.828 186.95 98.5391 189.795C97.5371 190.477 96.495 191.278 95.453 192.08C91.3649 195.286 86.6757 198.893 81.3051 196.769C80.0627 196.288 79.0607 195.527 78.1389 194.885C77.1369 194.164 76.2552 193.523 75.3734 193.362C73.6901 193.082 72.0469 194.405 69.7223 196.529C69.041 197.13 68.3596 197.771 67.6783 198.332C61.1855 203.542 50.9653 202.981 44.9134 197.37C36.3766 201.458 27.5993 206.629 25.7557 215.245C24.8739 219.454 26.3568 224.143 29.7235 227.79C33.0901 231.437 37.6591 233.241 41.9476 232.68C42.7091 232.559 43.4305 232.84 43.9114 233.401C44.3924 233.962 44.5527 234.724 44.3523 235.445C40.0639 249.793 47.1578 266.747 60.2637 273.961C65.6342 272.398 70.8044 269.913 75.2532 266.506L75.173 266.586Z" fill="white"/>
<path d="M359.334 471.99C355.486 469.184 351.278 465.537 351.438 461.169C351.278 461.409 351.038 461.61 350.717 461.65C350.156 461.73 349.555 461.329 349.474 460.728C349.114 458.163 345.707 456.8 342.701 457.161C341.338 457.321 339.976 457.682 338.573 458.083C336.689 458.604 334.725 459.125 332.681 459.125C330.237 459.125 327.712 457.962 326.229 456.159C325.146 454.876 324.746 453.353 325.066 451.83C325.427 450.027 326.71 448.704 327.872 447.542C328.313 447.101 328.714 446.66 329.114 446.219C332.761 441.771 330.878 434.757 326.83 430.989C322.1 426.621 315.127 425.499 310.277 425.018C304.025 424.417 297.692 424.537 291.48 425.338L290.358 425.499C287.392 425.899 284.346 426.3 281.3 425.619C278.014 424.857 275.288 422.853 272.683 420.97C271.801 420.329 270.88 419.647 269.958 419.046C268.435 418.044 263.064 414.918 259.096 417.323C256.772 418.725 255.65 421.491 254.447 424.457C253.004 427.984 251.521 431.631 247.754 432.873C243.466 434.316 239.538 431.591 235.73 428.945C232.123 426.461 228.757 424.096 225.67 425.819C224.548 426.461 223.707 427.583 222.825 428.745C222.224 429.587 221.582 430.428 220.821 431.15C218.055 433.795 214.288 434.396 210.641 434.957C207.795 435.398 205.11 435.799 202.866 437.122C200.902 438.284 199.419 440.047 197.856 441.971C197.014 442.973 196.132 444.015 195.17 444.977C192.245 447.903 187.395 449.987 183.708 447.702C182.505 446.941 181.544 445.819 180.582 444.696C178.978 442.813 177.936 441.65 176.534 442.051C174.81 442.532 174.53 445.057 174.369 448.023V448.303C173.969 455.438 169.359 462.291 162.947 465.377C162.586 465.537 162.185 465.738 161.825 465.898C160.502 466.499 159.26 467.02 158.418 467.982C156.935 469.665 156.935 472.311 157.095 475.116C157.536 483.372 157.256 491.829 152.206 497.841C147.797 503.051 141.384 504.734 134.691 504.734C129.401 504.734 123.99 503.692 119.221 502.45C118.74 508.502 113.93 513.191 109.562 517.359L108.159 518.722C101.826 524.934 96.9368 532.629 94.011 541.006C93.4098 542.729 93.1293 544.733 93.9709 545.294C94.532 545.695 95.8146 545.535 96.6562 545.454C121.465 542.649 149.039 537.96 162.506 517.92C164.63 514.754 166.434 511.147 168.197 507.62C172.005 500.045 175.892 492.23 183.427 487.741C184.99 486.819 186.674 486.058 188.317 485.336C191.443 483.933 194.409 482.651 196.132 480.246C197.094 478.964 197.655 477.32 198.256 475.597C198.577 474.675 198.938 473.753 199.298 472.872C204.268 461.409 216.212 457.041 227.755 452.832C232.764 450.989 237.935 449.105 242.423 446.7C251.762 441.61 260.86 447.302 269.677 452.832C273.966 455.518 278.374 458.283 282.743 459.766C285.989 460.848 289.396 461.449 292.963 462.05C295.448 462.491 298.053 462.932 300.578 463.573C315.007 467.221 326.75 476.599 338.092 485.697C347.511 493.232 357.25 501.007 368.312 505.336C371.678 506.658 375.325 507.7 378.852 508.702C383.221 509.945 387.67 511.267 391.838 513.071C385.105 496.839 373.562 482.25 359.334 471.95V471.99Z" fill="white"/>
<path d="M119.1 499.885C119.1 499.885 119.1 500.086 119.1 500.166C129.481 502.811 143.268 504.895 150.482 496.358C155.051 490.948 155.291 482.972 154.891 475.157C154.69 471.87 154.73 468.784 156.774 466.46C157.937 465.177 159.46 464.496 160.943 463.814C161.303 463.654 161.664 463.494 162.025 463.333C167.756 460.568 171.844 454.436 172.205 448.103C172.365 444.857 172.606 440.769 175.972 439.887C178.778 439.126 180.621 441.29 182.265 443.214C183.106 444.176 183.948 445.178 184.87 445.779C187.555 447.462 191.282 445.699 193.647 443.374C194.529 442.492 195.37 441.491 196.172 440.529C197.815 438.565 199.499 436.561 201.783 435.198C204.388 433.675 207.394 433.194 210.32 432.753C213.767 432.232 217.053 431.711 219.298 429.547C219.939 428.946 220.5 428.184 221.061 427.383C222.023 426.06 223.025 424.738 224.548 423.856C228.836 421.451 232.924 424.297 236.932 427.102C240.459 429.547 243.746 431.872 247.032 430.749C249.838 429.788 251.08 426.782 252.403 423.575C253.685 420.449 255.008 417.203 257.934 415.439C262.863 412.473 268.795 415.68 271.12 417.203C272.082 417.844 273.003 418.485 273.925 419.167C276.49 421.05 278.895 422.774 281.741 423.455C284.386 424.056 287.231 423.696 289.997 423.295H290.077C289.917 421.772 289.756 419.808 289.596 417.644C289.115 410.79 288.434 401.412 286.55 397.845C284.306 393.516 279.777 388.827 273.805 388.627C273.364 388.627 272.883 388.627 272.442 388.627C270.599 388.627 268.474 388.667 266.831 387.344C265.228 386.062 264.787 384.018 264.427 382.254C261.421 368.307 252.443 355.962 240.299 348.788C239.377 350.472 237.854 351.834 235.89 352.716C232.965 354.039 229.438 354.079 226.512 352.836C222.223 351.033 218.696 347.105 216.051 341.053C212.364 332.677 211.282 323.579 210.2 314.802C209.318 307.467 210.801 302.858 214.608 301.095C220.139 298.49 225.43 303.9 228.636 309.912C229.919 310.273 231.522 308.389 232.243 307.267C238.736 297.047 241.261 287.628 239.818 279.292C238.055 269.312 230.72 261.377 223.586 253.722C222.464 252.519 221.382 251.317 220.3 250.115C209.158 237.81 205.029 226.548 207.955 216.649C209.558 211.278 213.125 206.95 216.612 202.742C218.777 200.136 220.981 197.451 222.704 194.565C228.035 185.508 228.315 174.085 228.195 164.346C223.947 162.783 220.019 160.018 216.733 156.21C210.4 148.876 207.194 138.535 208.396 129.157C208.556 127.754 208.837 126.392 209.077 124.989C209.759 121.181 210.4 117.614 209.518 114.248C208.917 111.963 206.793 109.759 204.508 109.037C203.106 108.597 201.943 108.757 201.022 109.558C199.659 110.681 199.218 112.644 198.697 114.969C198.376 116.332 198.056 117.775 197.495 119.137C195.17 124.869 189.719 127.634 184.469 130.279C182.786 131.121 181.102 131.962 179.539 132.924C176.012 135.089 173.247 139.537 173.207 143.064C173.207 144.788 173.848 145.99 175.171 146.832C176.654 147.753 177.094 148.996 177.175 149.838C177.415 152.322 175.251 154.447 172.886 156.691C171.804 157.733 170.682 158.855 170.041 159.737C159.5 175.247 145.673 188.914 130.122 199.375C131.404 203.022 130.643 207.15 129.841 211.198C129.24 214.284 128.639 217.45 128.96 220.336C129.36 223.903 131.244 227.39 133.088 230.716C135.573 235.285 138.178 239.975 137.136 245.225C135.492 253.601 125.312 257.569 116.214 257.128C113.85 257.008 111.445 256.728 109.12 256.487C103.109 255.806 97.4575 255.124 92.127 257.088C87.9588 258.611 84.5921 261.497 81.0652 264.583C79.5823 265.865 78.1394 267.108 76.6164 268.27C72.368 271.517 67.5586 274.001 62.4685 275.645C62.5888 275.845 62.709 276.086 62.7491 276.326C62.8293 277.047 62.5487 277.769 61.9876 278.25L52.6091 286.225L57.4186 297.407C57.7793 298.209 57.619 299.131 57.0178 299.732C56.4166 300.373 55.5349 300.614 54.7333 300.293C48.6413 298.209 41.1866 300.854 37.82 306.345C37.2589 307.267 36.818 308.229 36.3371 309.191C35.5355 310.834 34.6938 312.557 33.4113 314.12C29.0427 319.371 21.9487 320.052 15.6964 320.613C14.6543 320.693 13.6123 320.813 12.6103 320.934C7.0794 321.575 -0.49553 324.942 0.0254971 330.472C0.30605 333.478 2.91118 335.803 5.67663 338.288C8.68256 341.013 11.8087 343.819 12.7305 348.027C13.3317 350.752 12.7706 353.357 12.2496 355.882C11.8488 357.806 11.448 359.65 11.6484 361.373C12.45 368.146 21.2674 370.752 29.0427 373.076L29.7641 373.276C35.5355 375 42.4691 379.809 44.5532 385.661C45.6354 388.787 45.2747 391.833 43.431 394.478C40.9461 398.085 38.3009 401.853 34.0926 403.255C34.0125 405.46 34.4533 407.664 35.3351 409.668C35.5756 410.229 35.5756 410.83 35.3351 411.391C35.0946 411.952 34.6537 412.393 34.0926 412.594C30.3653 413.956 26.5578 415.359 23.8725 418.044C21.6681 420.249 20.1852 424.096 21.7884 426.942C22.2292 427.703 22.8705 428.425 23.5919 429.226C25.0749 430.91 26.7582 432.793 26.7983 435.559C26.7983 438.044 25.4356 439.927 24.2332 441.571C23.4316 442.613 22.7102 443.615 22.5098 444.577C22.2693 445.779 22.7503 447.222 23.2713 448.464C26.7582 456.881 33.1307 463.814 39.3029 470.467C43.1104 474.596 47.6393 478.684 52.2885 477.642C53.0901 477.481 53.8916 477.722 54.4127 478.363C61.8273 487.1 71.7669 491.348 82.3878 490.306C84.9929 490.066 87.558 489.505 90.2433 488.944C94.1309 488.102 98.0988 487.301 102.267 487.341C109.762 487.461 118.258 491.91 119.22 499.845L119.1 499.885Z" fill="white"/>
<path d="M581.131 782.801C582.854 782.039 584.337 780.115 584.658 778.191C584.818 777.23 584.818 775.867 583.736 774.825C583.255 774.344 582.654 774.023 581.972 773.622C581.371 773.302 580.77 772.941 580.249 772.5C578.205 770.857 577.483 767.931 578.405 765.006C579.327 762.08 581.692 760.156 584.297 760.036C585.379 760.036 586.461 760.196 587.463 760.397C588.465 760.597 589.427 760.797 590.309 760.717C593.595 760.437 595.559 756.629 596.24 753.463C596.441 752.541 596.601 751.619 596.761 750.697C597.242 747.772 597.763 744.726 599.607 742.201C600.609 740.878 601.891 739.756 603.134 738.674C605.178 736.95 607.102 735.307 607.182 733.063C607.262 730.939 605.699 729.095 604.016 727.171C602.092 724.967 600.128 722.722 600.328 719.676C600.529 716.55 602.974 714.306 605.298 712.462C609.146 709.376 612.553 708.054 615.278 708.495C623.494 698.515 623.895 682.684 616.16 672.344L615.518 671.502C614.156 669.738 612.753 667.935 612.472 665.61C612.232 663.767 612.793 661.683 614.116 659.518C617.322 654.228 622.733 650.861 627.943 647.615C633.955 643.848 639.646 640.321 641.89 634.229C644.415 627.415 640.848 618.838 634.195 615.873L633.273 615.472C631.47 614.71 629.426 613.869 628.504 611.865C627.181 608.939 629.265 605.893 630.949 603.889C637.121 596.474 643.694 589.22 650.467 582.287C650.587 582.166 650.748 582.006 650.868 581.886C649.545 580.603 648.664 578.8 648.463 576.716C648.143 573.71 649.225 570.944 651.349 569.341C652.351 568.58 653.513 568.099 654.595 567.618C655.798 567.097 656.96 566.616 657.802 565.814C659.004 564.692 659.325 563.209 659.325 562.127C659.365 560.243 658.603 558.279 657.361 556.957C654.475 553.951 649.946 553.59 647.501 553.71H647.06C644.816 553.791 642.171 553.871 640.167 552.829C639.566 554.392 638.403 555.634 636.72 556.436C635.317 557.077 633.674 557.398 631.951 557.398C629.346 557.398 626.58 556.676 624.376 555.314C622.893 554.392 621.45 553.27 620.047 552.228C616.681 549.622 613.474 547.178 609.627 547.097C608.144 547.057 606.581 547.338 605.058 547.659C601.811 548.26 598.445 548.901 595.759 546.657C593.675 544.933 593.194 542.368 592.713 539.923C592.473 538.641 592.232 537.438 591.792 536.396C590.95 534.272 589.307 532.629 587.543 530.866C586.742 530.024 585.9 529.222 585.138 528.341C582.533 525.255 580.85 520.445 583.415 517.119C584.297 515.996 585.499 515.235 586.661 514.513C588.104 513.592 589.347 512.83 589.627 511.548C590.028 509.784 588.545 508.462 586.02 506.578C585.179 505.937 584.297 505.255 583.575 504.534C582.213 503.211 581.251 501.528 580.329 499.885C579.046 497.6 577.804 495.476 575.68 494.674C574.638 494.274 573.435 494.274 572.193 494.234C571.191 494.234 570.149 494.234 569.107 493.993C565.42 493.272 562.935 490.466 560.53 487.741C558.606 485.577 556.803 483.493 554.398 482.45C549.228 480.166 543.096 483.533 539.288 487.901C537.605 489.825 536.122 492.029 534.679 494.153C532.675 497.119 530.591 500.165 527.866 502.69C522.856 507.299 514.68 509.383 509.63 504.854C508.187 503.572 507.225 501.969 506.303 500.406C505.662 499.324 505.061 498.322 504.299 497.4C503.217 496.117 501.534 495.196 500.131 495.075C499.289 494.995 498.608 495.236 498.087 495.757C497.446 496.358 497.125 497.32 496.764 498.201L492.997 508.582C492.877 508.902 492.636 509.143 492.316 509.263C491.995 509.383 491.634 509.303 491.354 509.143C488.949 507.5 487.466 504.935 486.063 502.49C484.46 499.684 482.937 497.079 480.252 496.077C477.486 495.035 474.52 496.117 471.354 497.28C469.751 497.881 468.108 498.482 466.425 498.803C457.367 500.606 449.832 494.634 442.537 488.823C435.884 483.533 428.991 478.082 421.135 478.803C420.574 478.843 419.973 478.924 419.372 479.004C416.807 479.364 413.881 479.765 411.677 477.962C409.713 476.359 409.392 473.914 409.071 471.549C408.831 469.625 408.591 467.822 407.468 466.659C406.106 465.177 403.781 465.056 401.296 464.936C398.411 464.816 395.445 464.656 393.521 462.331C392.318 460.848 392.038 459.044 391.757 457.321C391.677 456.72 391.557 456.119 391.437 455.558C389.874 448.784 381.938 445.378 375.485 446.139C368.351 446.981 362.139 451.51 356.969 455.838C355.526 457.041 354.203 458.243 353.682 459.806C352.4 463.694 356.608 467.341 360.416 470.106C375.125 480.727 386.988 495.837 393.882 512.63C394.082 513.071 393.882 513.511 393.521 513.832C396.447 515.275 399.252 517.038 401.737 519.323C412.438 529.142 413.761 544.132 415.003 558.64C415.204 560.885 415.404 563.129 415.604 565.333C417.688 585.132 424.141 604.61 434.361 621.724C435.644 623.888 437.007 626.012 438.369 628.137C442.177 634.148 446.104 640.321 448.629 647.174C452.677 658.156 451.956 669.257 446.666 676.832C446.104 677.634 445.463 678.435 444.822 679.237C443.299 681.161 441.816 683.004 441.495 685.048C440.694 689.617 445.984 693.866 451.355 695.108C453.279 695.549 455.242 695.83 457.327 696.11C461.655 696.711 466.184 697.313 470.152 699.717C473.999 702.042 476.605 706.851 476.404 711.42C476.364 712.743 476.043 713.985 475.563 715.067C485.021 716.15 501.574 719.476 505.662 732.822C505.942 733.704 506.143 734.626 506.343 735.508C506.744 737.311 507.145 739.035 508.067 740.277C509.109 741.64 510.912 742.481 512.796 743.363C513.758 743.804 514.68 744.245 515.601 744.766C520.691 747.692 523.898 753.383 524.178 759.956C524.419 765.487 522.615 770.536 519.168 774.063L524.579 778.352C538.967 770.937 557.604 772.981 570.63 782.48C574.518 783.362 578.004 783.923 581.05 782.56L581.131 782.801Z" fill="white"/>
</svg>
